<?xml version="1.0" encoding="UTF-8"?>
<svg version="1.1" xmlns="http://www.w3.org/2000/svg" width="3375" height="3375">
<path d="M0 0 C1.35853344 -0.00274955 2.71706667 -0.00560694 4.07559967 -0.00856781 C10.48820099 -0.02218714 16.90079006 -0.03187327 23.3134048 -0.0357697 C29.83514164 -0.03976096 36.35673068 -0.05187996 42.87841797 -0.078125 C129.85098696 -0.42028132 215.01696691 7.86539091 353.515625 43.203125 C354.25929321 43.42917419 355.00296143 43.65522339 355.76916504 43.88812256 C405.80012973 59.09955728 453.84337233 79.14245331 500.67126465 102.29364014 C503.48228475 103.67980105 506.30022438 105.05174742 509.1171875 106.42578125 C522.88620164 113.17865339 536.24533477 120.52185319 549.515625 128.203125 C551.4933981 129.33870102 553.47126355 130.47411619 555.44921875 131.609375 C582.23700196 147.04699443 608.26020079 163.6762001 633.39453125 181.68359375 C634.85141289 182.7272898 636.30983171 183.76884243 637.76953125 184.80859375 C652.88155076 195.57367025 667.35091571 206.99931839 681.71582031 218.73535156 C683.28872794 220.01808632 684.86660784 221.29471913 686.4453125 222.5703125 C692.51015602 227.48337565 698.42743946 232.55081017 704.30297852 237.6875 C707.64761847 240.60775669 711.02203138 243.46005624 714.515625 246.203125 C717.81548649 244.76202069 719.98315841 242.97918213 722.51382446 240.43197632 C723.29894913 239.64671066 724.08407379 238.86144501 724.89299011 238.05238342 C725.7450856 237.18995529 726.59718109 236.32752716 727.47509766 235.43896484 C728.86336483 234.04621488 730.25163226 232.65346518 731.63990951 231.26072526 C733.12872225 229.76517643 734.61502234 228.26717089 736.10063553 226.76844406 C739.19608036 223.64595161 742.29914205 220.5311046 745.40341187 217.41738892 C751.98841454 210.81019431 758.5649298 204.1945808 765.140625 197.578125 C772.24623391 190.42850432 779.35326349 183.28033192 786.47006452 176.14184916 C789.55825725 173.04366822 792.64150284 169.94067 795.72110391 166.8339498 C797.17381516 165.36994124 798.62877327 163.90821203 800.08479309 162.44749451 C801.86345529 160.66306656 803.63848756 158.87501071 805.40931702 157.08280945 C806.18880203 156.30318344 806.96828705 155.52355743 807.77139282 154.7203064 C808.7895555 153.69548188 808.7895555 153.69548188 809.82828712 152.64995384 C811.515625 151.203125 811.515625 151.203125 813.515625 151.203125 C818.465625 171.003125 818.465625 171.003125 823.515625 191.203125 C837.045625 177.673125 850.575625 164.143125 864.515625 150.203125 C866.71169917 152.39919917 866.96625761 153.28963967 867.67108154 156.22836304 C867.87757765 157.07396506 868.08407375 157.91956709 868.29682732 158.79079342 C868.51695047 159.72398686 868.73707363 160.65718031 868.96386719 161.61865234 C869.32170382 163.09770853 869.32170382 163.09770853 869.68676949 164.60664463 C870.48552657 167.91584319 871.27398097 171.22741072 872.0625 174.5390625 C872.62594462 176.88259855 873.190014 179.22598446 873.75466919 181.56922913 C875.12246915 187.2525525 876.48363845 192.93743964 877.84186256 198.62305683 C879.43321777 205.28301996 881.03276435 211.94100769 882.63267112 218.5989207 C886.31738133 233.93408843 889.98821209 249.27256283 893.65653992 264.61165619 C894.93966856 269.97587049 896.22415973 275.3397582 897.50878906 280.70361328 C901.01096206 295.32795334 904.510762 309.95285703 908.00292969 324.57958984 C913.24667054 346.5418875 918.50283232 368.50116376 923.7734375 390.45703125 C924.00956206 391.4406654 924.00956206 391.4406654 924.25045681 392.44417095 C926.34783996 401.18117871 928.44566127 409.91808125 930.5435791 418.65496063 C933.41229632 430.60190152 936.28067061 442.54892471 939.1484375 454.49609375 C939.3038202 455.14341744 939.4592029 455.79074114 939.61929417 456.4576807 C949.27870746 496.69962773 958.90108576 536.95043628 968.515625 577.203125 C965.17257674 578.31076329 962.99026242 578.07373448 959.59521484 577.23095703 C958.62095551 576.99386017 957.64669617 576.75676331 956.64291382 576.51248169 C955.59801788 576.24797211 954.55312195 575.98346252 953.4765625 575.7109375 C952.39935944 575.44554169 951.32215637 575.18014587 950.21231079 574.90670776 C947.93668856 574.34432204 945.66216223 573.77748593 943.38867188 573.20654297 C939.89935376 572.33031694 936.40711325 571.46668135 932.9140625 570.60546875 C930.70554851 570.05801994 928.49720897 569.50986683 926.2890625 568.9609375 C925.2401181 568.70047638 924.19117371 568.44001526 923.11044312 568.17166138 C922.1424881 567.92826019 921.17453308 567.68485901 920.17724609 567.43408203 C919.3232724 567.22010773 918.46929871 567.00613342 917.58944702 566.78567505 C915.515625 566.203125 915.515625 566.203125 913.515625 565.203125 C914.505625 569.493125 915.495625 573.783125 916.515625 578.203125 C910.68064736 577.57482342 905.11890057 576.51275017 899.4230957 575.11547852 C898.10015503 574.79662343 898.10015503 574.79662343 896.75048828 574.47132683 C893.81312151 573.76231964 890.87729613 573.04712719 887.94140625 572.33203125 C885.83296257 571.82201056 883.72441387 571.31242382 881.61576843 570.80323792 C877.07619044 569.70627443 872.53724638 568.60673853 867.9987793 567.50518799 C856.9604081 564.82629705 845.91873698 562.16105592 834.87734604 559.49464417 C831.0363243 558.5669533 827.19542309 557.63876445 823.35452271 556.71057129 C799.97693727 551.06319048 776.58366567 545.48254784 753.18682861 539.91555786 C710.31229876 529.71403119 667.46198091 519.41521749 624.62527466 509.05606079 C589.21413861 500.4929245 553.78891264 491.99195703 518.33859825 483.59239864 C515.02782241 482.80782044 511.71725112 482.0223812 508.4066925 481.23688698 C506.17198136 480.70717236 503.93689926 480.17904565 501.70178223 479.65104675 C500.37661102 479.33685176 499.05145536 479.02259119 497.72631836 478.70825195 C496.59060898 478.43962845 495.4548996 478.17100494 494.28477478 477.89424133 C491.515625 477.203125 491.515625 477.203125 488.515625 476.203125 C490.10389943 472.2942613 492.78084967 469.66330177 495.72940063 466.74884033 C496.26605484 466.21047727 496.80270905 465.67211421 497.35562551 465.11743712 C499.15505317 463.31471524 500.96153586 461.51923465 502.76806641 459.72363281 C504.05941494 458.43284841 505.35032326 457.14162348 506.64082336 455.84999084 C510.14645905 452.34378071 513.65823251 448.84377661 517.17112398 445.34483814 C520.84090815 441.68754588 524.50503949 438.02459928 528.16976929 434.36224365 C535.11077457 427.42745766 542.05686294 420.49778621 549.00478303 413.56992888 C556.91430071 405.68275621 564.81814858 397.78991225 572.72152066 389.89658213 C588.97991239 373.65910258 605.24542642 357.42877328 621.515625 341.203125 C617.90846817 333.68773088 610.75722721 328.54293728 604.515625 323.203125 C603.48430709 322.31908963 602.45306269 321.43496851 601.421875 320.55078125 C599.66303857 319.04291832 597.90359099 317.53579703 596.14233398 316.03076172 C593.00293976 313.3460098 589.87544522 310.64922942 586.76953125 307.92578125 C579.16159249 301.2604102 571.42272414 294.85040261 563.41259766 288.67480469 C561.37755684 287.09601112 559.35800412 285.49874494 557.33984375 283.8984375 C547.05684899 275.77295385 536.4998538 268.1390469 525.703125 260.71191406 C523.85198894 259.43512602 522.00903909 258.148317 520.171875 256.8515625 C475.76292697 225.64843323 428.04251099 198.37824667 378.515625 176.203125 C377.46358887 175.72681641 376.41155273 175.25050781 375.32763672 174.75976562 C297.84265557 139.68774357 214.74832785 116.02350105 63.51269531 98.35888672 C60.63233796 98.20919073 57.75929346 98.01114473 54.8828125 97.80078125 C-31.25603562 92.08077037 -123.21062719 111.85616822 -211.484375 139.203125 C-212.13736572 139.40703857 -212.79035645 139.61095215 -213.46313477 139.82104492 C-244.4877144 149.52933601 -274.96179839 161.2100212 -304.47998047 174.82519531 C-307.38951177 176.15961711 -310.31089918 177.46309555 -313.23828125 178.7578125 C-338.73777314 190.10950758 -363.59039019 203.03799192 -387.50634766 217.42285156 C-390.72924606 219.34950964 -393.9700814 221.24322374 -397.21484375 223.1328125 C-411.30321039 231.3510057 -425.04920669 239.95055639 -438.484375 249.203125 C-439.41733398 249.8425 -440.35029297 250.481875 -441.31152344 251.140625 C-462.45221949 265.64519636 -483.065866 280.73496475 -502.85546875 297.0390625 C-504.59165658 298.46825724 -506.3337614 299.89029776 -508.08203125 301.3046875 C-519.52605574 310.57451588 -530.59220694 320.29318143 -541.484375 330.203125 C-542.35707031 330.98300781 -543.22976563 331.76289062 -544.12890625 332.56640625 C-551.32735656 339.05584367 -558.19283347 345.83736564 -564.99023438 352.74584961 C-569.08755786 356.89097521 -573.25560965 360.84909512 -577.71240234 364.60717773 C-580.24096263 366.88455423 -582.37412296 369.44285033 -584.5703125 372.03515625 C-586.77662984 374.53414833 -589.11121193 376.86222547 -591.484375 379.203125 C-595.05521012 382.73625899 -598.44988725 386.33685595 -601.71484375 390.15234375 C-603.72223523 392.47879083 -605.78904138 394.74505186 -607.859375 397.015625 C-611.71338118 401.28487764 -615.35815982 405.68776887 -618.97265625 410.16015625 C-621.88917353 413.69354188 -624.90175662 417.13344623 -627.921875 420.578125 C-633.24421454 426.67327223 -638.22863041 432.92881921 -643.10205078 439.39111328 C-644.64647506 441.41561293 -646.21718756 443.41778316 -647.79296875 445.41796875 C-655.6982927 455.45829922 -663.24034712 465.67671545 -670.484375 476.203125 C-671.07895508 477.06486328 -671.67353516 477.92660156 -672.28613281 478.81445312 C-680.55505736 490.81484182 -688.68837667 502.88976811 -696.484375 515.203125 C-697.22953369 516.37464111 -697.22953369 516.37464111 -697.98974609 517.56982422 C-707.0293518 531.81993406 -715.38450434 546.40134198 -723.484375 561.203125 C-724.40138184 562.8725415 -724.40138184 562.8725415 -725.33691406 564.57568359 C-749.8546884 609.32477407 -769.92732494 655.92597585 -786.484375 704.203125 C-786.89010742 705.38616211 -787.29583984 706.56919922 -787.71386719 707.78808594 C-812.43162394 780.56923646 -826.42889581 856.59199299 -831.484375 933.203125 C-831.5327652 933.90053802 -831.5811554 934.59795105 -831.63101196 935.3164978 C-832.68774891 950.82911271 -832.68551556 966.34796509 -832.671875 981.890625 C-832.67160812 982.57255417 -832.67134125 983.25448334 -832.67106628 983.95707703 C-832.65956226 1007.41926706 -832.26217013 1030.80000133 -830.484375 1054.203125 C-830.39316376 1055.42092651 -830.39316376 1055.42092651 -830.30010986 1056.66333008 C-824.95121758 1127.2474294 -811.42111701 1196.89557513 -789.484375 1264.203125 C-789.24996704 1264.92483887 -789.01555908 1265.64655273 -788.77404785 1266.39013672 C-775.52543307 1307.10704818 -759.00348037 1346.39137833 -740.14501953 1384.81884766 C-738.62508757 1387.91636263 -737.1147876 1391.01839941 -735.60546875 1394.12109375 C-729.0783976 1407.44793198 -721.9210098 1420.3645647 -714.484375 1433.203125 C-714.0423877 1433.96963379 -713.60040039 1434.73614258 -713.14501953 1435.52587891 C-710.30383714 1440.44608348 -707.41170971 1445.33373223 -704.484375 1450.203125 C-703.79819092 1451.3485376 -703.79819092 1451.3485376 -703.09814453 1452.51708984 C-685.13621456 1482.37721462 -664.7533106 1510.62997493 -643.484375 1538.203125 C-642.95537598 1538.88955078 -642.42637695 1539.57597656 -641.88134766 1540.28320312 C-636.13068995 1547.72680255 -630.20032176 1554.98540938 -624.0859375 1562.1328125 C-621.74179799 1564.88046545 -619.48554184 1567.69112728 -617.234375 1570.515625 C-612.74065215 1576.04760872 -607.88578223 1581.21007339 -602.97558594 1586.37036133 C-599.85749604 1589.6499739 -596.7999803 1592.95879521 -593.8359375 1596.37890625 C-591.16850028 1599.45323433 -588.40222478 1602.36206074 -585.484375 1605.203125 C-582.55319309 1608.09904458 -579.72034326 1611.00555071 -577.046875 1614.140625 C-570.75615317 1621.46990939 -563.78849129 1628.19675641 -556.4453125 1634.4609375 C-554.19805615 1636.4575039 -552.09542573 1638.56325446 -549.984375 1640.703125 C-546.63180721 1644.09580899 -543.18961818 1647.29413184 -539.5703125 1650.3984375 C-537.23411999 1652.41963776 -534.95472649 1654.49691339 -532.671875 1656.578125 C-528.37828868 1660.45346243 -523.95349498 1664.1253381 -519.45703125 1667.76171875 C-516.14685557 1670.48032558 -512.90955046 1673.27411079 -509.671875 1676.078125 C-503.32437524 1681.55598512 -496.80527082 1686.77720268 -490.16943359 1691.90039062 C-488.55763159 1693.14648965 -486.95247675 1694.40117245 -485.34765625 1695.65625 C-476.23324127 1702.74651008 -466.87852737 1709.48986521 -457.484375 1716.203125 C-456.400354 1716.98139648 -456.400354 1716.98139648 -455.29443359 1717.77539062 C-444.88896573 1725.24209061 -434.29540028 1732.33845557 -423.484375 1739.203125 C-422.70771484 1739.69844727 -421.93105469 1740.19376953 -421.13085938 1740.70410156 C-405.64490571 1750.57874813 -390.0174077 1760.04036929 -373.91064453 1768.86865234 C-371.45973861 1770.21667526 -369.01664587 1771.57809046 -366.57421875 1772.94140625 C-326.44627042 1795.23471088 -284.6594236 1813.66698746 -241.484375 1829.203125 C-240.68147034 1829.49338562 -239.87856567 1829.78364624 -239.05133057 1830.08270264 C-211.89668823 1839.88927471 -184.45637006 1848.06808713 -156.484375 1855.203125 C-155.77575317 1855.38490295 -155.06713135 1855.56668091 -154.33703613 1855.75396729 C-116.62151189 1865.41041633 -78.10224343 1871.53168856 -39.484375 1876.203125 C-38.40343567 1876.33397491 -38.40343567 1876.33397491 -37.30065918 1876.46746826 C-21.73134544 1878.33392176 -6.13552611 1879.50580237 9.515625 1880.390625 C10.2574704 1880.43368774 10.9993158 1880.47675049 11.76364136 1880.52111816 C31.33015851 1881.63187044 50.78350489 1881.41117941 70.328125 1880.015625 C71.73069046 1879.91767639 71.73069046 1879.91767639 73.16159058 1879.81774902 C122.20346208 1876.34661596 170.68116986 1868.46022373 218.515625 1857.203125 C219.20227234 1857.04221375 219.88891968 1856.88130249 220.59637451 1856.71551514 C302.09041017 1837.585401 382.08526887 1806.01277154 454.16796875 1763.34765625 C459.05063763 1760.46248257 463.96636671 1757.65451873 468.953125 1754.953125 C469.59685059 1754.59420166 470.24057617 1754.23527832 470.90380859 1753.86547852 C482.13907682 1747.8757961 495.55676541 1747.439789 507.640625 1751.015625 C510.78958122 1752.06127077 513.39411455 1753.12797114 516.21875 1754.875 C518.47057785 1756.51975114 518.47057785 1756.51975114 521.140625 1755.640625 C522.254375 1755.16625 523.368125 1754.691875 524.515625 1754.203125 C538.44894692 1748.32679813 550.96650185 1748.00940085 565.26953125 1753.203125 C577.55441205 1758.73997269 586.44081956 1769.10558649 591.390625 1781.515625 C595.32269336 1794.40407128 593.92321304 1807.09517083 588.390625 1819.328125 C581.84645039 1831.34177106 572.02580504 1837.63232628 560.515625 1844.203125 C559.61247559 1844.72390625 558.70932617 1845.2446875 557.77880859 1845.78125 C541.61064112 1855.07760691 525.13144419 1863.73920492 508.515625 1872.203125 C507.37504639 1872.78586182 507.37504639 1872.78586182 506.21142578 1873.38037109 C502.41759918 1875.31471435 498.60888645 1877.21583243 494.78466797 1879.08935547 C493.10733148 1879.91268332 491.43220547 1880.74051797 489.75830078 1881.57080078 C434.57036876 1908.90423807 376.35131889 1929.82416417 316.85882568 1945.58203125 C314.50225229 1946.2066696 312.14688407 1946.83572296 309.79150391 1947.46484375 C229.38612975 1968.85010544 131.55570495 1988.67629592 47.97265625 1978.4296875 C39.58168471 1977.65595722 31.0911793 1978.11888241 22.703125 1978.703125 C17.30043381 1979.0721228 11.93224034 1979.29204779 6.515625 1979.28125 C5.74929245 1979.28002136 4.9829599 1979.27879272 4.19340515 1979.27752686 C-89.46082223 1978.82445961 -181.49889553 1964.76445869 -437.484375 1873.203125 C-438.4714444 1872.70878967 -438.4714444 1872.70878967 -439.47845459 1872.20446777 C-456.85437826 1863.49405643 -473.80635001 1854.19195683 -490.484375 1844.203125 C-492.61041743 1842.93966715 -494.73672481 1841.67665503 -496.86328125 1840.4140625 C-515.73495249 1829.18198001 -534.20434946 1817.61813175 -552.10595703 1804.890625 C-554.34983267 1803.29858349 -556.60078638 1801.7173116 -558.85546875 1800.140625 C-579.41606123 1785.74749644 -599.23690462 1770.55964678 -618.66699219 1754.68408203 C-620.29145281 1753.3603343 -621.92262846 1752.04483691 -623.5546875 1750.73046875 C-629.18887671 1746.17977746 -634.5978495 1741.44433258 -639.9296875 1736.54296875 C-642.11135315 1734.54477652 -644.31448809 1732.58163611 -646.546875 1730.640625 C-661.03484926 1718.02206677 -674.98608291 1704.87061574 -688.484375 1691.203125 C-691.89985189 1687.78124942 -695.32693169 1684.37126691 -698.7578125 1680.96484375 C-700.27350747 1679.4565327 -701.78871563 1677.9477345 -703.30371094 1676.4387207 C-704.3363361 1675.4111193 -705.36985768 1674.38441786 -706.40429688 1673.35864258 C-711.76611082 1668.04037203 -717.05769391 1662.71178423 -721.96826172 1656.96655273 C-724.34917205 1654.1972588 -726.86132527 1651.55381074 -729.359375 1648.890625 C-733.79902793 1644.11901605 -738.00096641 1639.2214451 -742.08203125 1634.13671875 C-744.93399075 1630.65408203 -747.89279625 1627.27551207 -750.859375 1623.890625 C-756.46963822 1617.46233352 -761.79905931 1610.86430837 -767.00830078 1604.10888672 C-768.60308979 1602.04985215 -770.21249791 1600.0028361 -771.82421875 1597.95703125 C-779.47967482 1588.21847238 -786.85395453 1578.31381101 -794.03955078 1568.22412109 C-795.31155139 1566.44486779 -796.59502278 1564.67512875 -797.88671875 1562.91015625 C-816.21915748 1537.68346705 -832.84917022 1511.16601927 -848.484375 1484.203125 C-849.01144043 1483.2961084 -849.53850586 1482.3890918 -850.08154297 1481.45458984 C-858.79045876 1466.41435392 -866.87742146 1451.07842878 -874.7578125 1435.59326172 C-876.30539633 1432.55455285 -877.86269041 1429.52104603 -879.421875 1426.48828125 C-898.84424151 1388.46529051 -914.5854176 1348.53894126 -928.484375 1308.203125 C-928.72351624 1307.50975037 -928.96265747 1306.81637573 -929.20904541 1306.10198975 C-956.08929669 1227.9105561 -971.91337443 1146.02495098 -978.29296875 1063.66290283 C-978.47141238 1061.36970872 -978.65700172 1059.07719766 -978.84375 1056.78466797 C-982.85346684 1006.32860906 -982.76100944 953.8413194 -977.70898438 903.49108887 C-977.48047159 901.16336325 -977.2688531 898.83467196 -977.0625 896.50488281 C-973.65438808 858.08792506 -967.49917373 819.92102744 -959.484375 782.203125 C-959.32257751 781.44056396 -959.16078003 780.67800293 -958.99407959 779.89233398 C-943.43357427 706.90086738 -919.04307769 635.91398817 -887.05322266 568.51269531 C-885.53391573 565.30763389 -884.02956464 562.09591 -882.52734375 558.8828125 C-871.54818339 535.54037864 -859.19474246 513.01017532 -846.03759766 490.82910156 C-844.61642823 488.42638255 -843.20890621 486.01647896 -841.80859375 483.6015625 C-823.7541387 452.50343842 -803.23543428 422.82114886 -781.484375 394.203125 C-780.66936523 393.12683838 -780.66936523 393.12683838 -779.83789062 392.02880859 C-773.2117261 383.28050137 -766.49387964 374.64846858 -759.484375 366.203125 C-758.04638856 364.43268665 -756.60890096 362.66184304 -755.171875 360.890625 C-747.51012166 351.53071691 -739.61359677 342.37462916 -731.484375 333.41796875 C-729.68833971 331.42899998 -727.92484197 329.41749306 -726.171875 327.390625 C-718.47048651 318.57386301 -710.48896475 310.04652143 -702.11279297 301.8684082 C-699.31192227 299.11468265 -696.671682 296.29362103 -694.1171875 293.30859375 C-690.40117383 289.01254436 -686.34578177 285.17366745 -682.171875 281.328125 C-677.34350649 276.83723711 -672.5523495 272.3358111 -667.921875 267.640625 C-664.60011428 264.27971895 -661.1915843 261.11004501 -657.6015625 258.0390625 C-655.07838045 255.8510633 -652.62882981 253.59019387 -650.171875 251.328125 C-645.65183771 247.20086337 -640.98642368 243.31722365 -636.22265625 239.4765625 C-633.4518969 237.1761603 -630.810997 234.77791028 -628.171875 232.328125 C-623.03343244 227.60513098 -617.65178658 223.3090753 -612.13671875 219.04296875 C-609.09870933 216.69287174 -606.10736276 214.29065472 -603.12475586 211.87084961 C-594.57078504 204.94381273 -585.75612566 198.40100454 -576.85449219 191.92919922 C-574.60317019 190.28963942 -572.35943322 188.64022146 -570.1171875 186.98828125 C-550.84533631 172.85165868 -530.76342431 159.84103384 -510.484375 147.203125 C-509.40671875 146.5313623 -508.3290625 145.85959961 -507.21875 145.16748047 C-490.63767601 134.8590323 -473.78850129 125.26010052 -456.484375 116.203125 C-454.32805142 115.06394134 -452.17180177 113.92461774 -450.015625 112.78515625 C-443.20098004 109.20029233 -436.35318818 105.68292938 -429.484375 102.203125 C-428.57259491 101.74033142 -428.57259491 101.74033142 -427.64239502 101.26818848 C-344.41836561 59.09206748 -253.72105324 29.94516406 -48.484375 1.203125 C-47.76991085 1.15793858 -47.0554467 1.11275215 -46.31933212 1.06619644 C-30.88219657 0.10969309 -15.46273076 0.02232905 0 0 Z " fill="#37B5FE" transform="translate(1174.484375,698.796875)"/>
<path d="M0 0 C0.81210938 0.69351562 1.62421875 1.38703125 2.4609375 2.1015625 C24.25931771 22.11206295 32.49845824 54.66047921 33.91845703 83.23730469 C34.06329976 88.14461099 33.98591763 93.03185884 33.8125 97.9375 C33.78269043 98.81639893 33.75288086 99.69529785 33.72216797 100.60083008 C32.75288486 119.5457556 28.93601419 138.15488728 24.9296875 156.64453125 C24.44252076 158.91984845 23.9559707 161.19529776 23.47000122 163.47087097 C22.46142446 168.18537097 21.44751117 172.89867736 20.42919922 177.61108398 C19.12181057 183.66200227 17.82517096 189.71516274 16.53202629 195.76913929 C15.53314504 200.44243601 14.53030416 205.11487533 13.52606583 209.78702354 C13.04594069 212.02166768 12.56669727 214.25650143 12.08834457 216.49152565 C11.42452935 219.58869432 10.75576312 222.68474985 10.08544922 225.78051758 C9.88804138 226.70548538 9.69063354 227.63045319 9.48724365 228.58345032 C8.11453032 234.88546968 8.11453032 234.88546968 7 236 C5.6465941 236.09531163 4.28826016 236.1218872 2.9315033 236.12025452 C1.61683327 236.12231651 1.61683327 236.12231651 0.27560425 236.12442017 C-0.69327728 236.12082489 -1.66215881 236.11722961 -2.66040039 236.11352539 C-3.67491776 236.11367142 -4.68943512 236.11381744 -5.73469543 236.1139679 C-9.10570373 236.11326829 -12.47665754 236.10547368 -15.84765625 236.09765625 C-18.17793243 236.09579224 -20.508209 236.09436826 -22.83848572 236.09336853 C-28.98537265 236.08954202 -35.13223613 236.0797106 -41.27911377 236.06866455 C-47.54609866 236.05845329 -53.81308732 236.05387152 -60.08007812 236.04882812 C-72.38672908 236.03808845 -84.69336259 236.02101044 -97 236 C-95.38403496 225.38916327 -93.15514519 214.92241584 -90.92999077 204.42560387 C-90.23407846 201.14253483 -89.5413442 197.85880879 -88.84938049 194.5749054 C-87.38156873 187.6118411 -85.90974321 180.64962845 -84.4375 173.6875 C-82.72694026 165.59718389 -81.01804743 157.50652143 -79.31282234 149.41507912 C-78.6316898 146.1869374 -77.94780077 142.95938778 -77.26377869 139.7318573 C-76.84556255 137.74924422 -76.42747019 135.76660502 -76.00952148 133.78393555 C-75.81989334 132.89288116 -75.6302652 132.00182678 -75.43489075 131.08377075 C-72.28302515 116.08391643 -70.64463317 100.15578722 -77.8125 86 C-81.65078283 80.73606926 -85.41677217 78.91483923 -91.6875 77.625 C-101.6349761 76.25845316 -109.74488811 78.38652391 -118 84 C-118.60457031 84.40863281 -119.20914063 84.81726562 -119.83203125 85.23828125 C-136.36315429 97.88850859 -140.07336143 121.21692133 -144.0859375 140.28515625 C-144.55786649 142.48304923 -145.0308261 144.68072113 -145.50473022 146.87818909 C-146.76288469 152.72804098 -148.00563955 158.58105663 -149.24443054 164.43503571 C-150.23425612 169.10527853 -151.23197425 173.77381823 -152.22984505 178.44234753 C-155.2837901 192.73220629 -158.31063521 207.02775467 -161.3324846 221.32442862 C-162.96962353 229.06920841 -164.60994238 236.81331434 -166.25048828 244.55737305 C-166.40438672 245.28384069 -166.55828516 246.01030833 -166.71684718 246.75879014 C-167.5061044 250.4843499 -168.2954165 254.20989803 -169.08476639 257.93543816 C-169.72820335 260.97234192 -170.37154817 264.00926518 -171.01481247 267.04620552 C-177.71321231 298.66999091 -184.4363839 330.28848491 -191.16929042 361.90494013 C-193.45722459 372.64867381 -195.74255791 383.39295574 -198.02502728 394.13785172 C-199.74073123 402.21455515 -201.45782821 410.29096217 -203.17578125 418.3671875 C-203.3429412 419.15308038 -203.51010115 419.93897326 -203.68232656 420.74868107 C-208.11629784 441.5916743 -212.60053678 462.42279671 -217.15660858 483.23944283 C-218.73685743 490.46756488 -220.30748971 497.69778468 -221.878479 504.92792416 C-223.29558245 511.44219534 -224.73064537 517.95213859 -226.1809454 524.459095 C-227.05148973 528.38432055 -227.90499983 532.31310941 -228.75396156 536.24305344 C-229.13843964 538.00569126 -229.52991189 539.76682398 -229.92970848 541.52605057 C-233.58404161 557.62856405 -235.89656236 574.47014973 -229 590 C-228.66226563 590.90621094 -228.32453125 591.81242187 -227.9765625 592.74609375 C-227.20652542 595.09677235 -227.20652542 595.09677235 -225.25 596.125 C-224.5075 596.41375 -223.765 596.7025 -223 597 C-221.63875 597.7734375 -221.63875 597.7734375 -220.25 598.5625 C-212.74450796 601.88223686 -205.74310948 601.21997737 -198 599 C-195.27919437 597.82801863 -192.69194093 596.54250664 -190.09375 595.12109375 C-188 594 -188 594 -185 593 C-185 592.34 -185 591.68 -185 591 C-184.34 591 -183.68 591 -183 591 C-182.72414063 590.41347656 -182.44828125 589.82695312 -182.1640625 589.22265625 C-181.05233725 587.09993253 -179.80665742 585.35304163 -178.375 583.4375 C-175.36132741 578.92067531 -173.10263393 574.2123224 -170.9375 569.25 C-170.62151855 568.55575928 -170.30553711 567.86151855 -169.97998047 567.14624023 C-167.59971261 561.51033692 -166.12395831 555.73766025 -164.72973633 549.80053711 C-164.5139883 548.88710383 -164.29824028 547.97367056 -164.07595444 547.03255749 C-161.58071723 536.35987721 -159.31411533 525.63879192 -157.05721283 514.91366005 C-156.27779848 511.21013582 -155.49492734 507.5073561 -154.71124268 503.80473328 C-152.91309703 495.30607761 -151.11980707 486.80640017 -149.32688904 478.30664062 C-147.53810623 469.82673296 -145.74721093 461.3472791 -143.9525528 452.86861229 C-143.18088488 449.21840057 -142.41250003 445.56750753 -141.64422607 441.9165802 C-141.17541552 439.6999675 -140.70645042 437.48338748 -140.23730469 435.2668457 C-139.91785385 433.74216927 -139.91785385 433.74216927 -139.59194946 432.18669128 C-139.3958609 431.26349091 -139.19977234 430.34029053 -138.9977417 429.38911438 C-138.74338915 428.18284126 -138.74338915 428.18284126 -138.48389816 426.95219898 C-138 425 -138 425 -137 423 C-150.53 423 -164.06 423 -178 423 C-175.74953162 408.37195552 -175.74953162 408.37195552 -174.41186523 401.9465332 C-174.19438126 400.89511894 -174.19438126 400.89511894 -173.97250366 399.82246399 C-173.50453023 397.56452901 -173.0317531 395.30763466 -172.55859375 393.05078125 C-172.22732853 391.4599397 -171.89628302 389.86905239 -171.56544495 388.27812195 C-170.87758357 384.97410203 -170.18736847 381.67058567 -169.49536133 378.36743164 C-168.60786565 374.13037868 -167.72599265 369.89217823 -166.84577847 365.65360737 C-166.1658507 362.38218723 -165.4832188 359.11133607 -164.7997303 355.84065819 C-164.47319782 354.27667871 -164.1474627 352.71253253 -163.82253838 351.14821815 C-163.37066171 348.97494071 -162.91520381 346.80244493 -162.45874023 344.63012695 C-162.07140968 342.77699638 -162.07140968 342.77699638 -161.67625427 340.88642883 C-161 338 -161 338 -160 336 C-112.15 336 -64.3 336 -15 336 C-16.12499019 346.12491171 -16.12499019 346.12491171 -16.98809814 350.2028656 C-17.28058724 351.60040919 -17.28058724 351.60040919 -17.57898521 353.02618599 C-17.79171892 354.0209992 -18.00445263 355.01581242 -18.22363281 356.04077148 C-18.45091379 357.12058226 -18.67819477 358.20039303 -18.91236305 359.31292534 C-19.6719047 362.91651544 -20.43754173 366.51878276 -21.203125 370.12109375 C-21.75040109 372.71192908 -22.29732266 375.30283681 -22.84378052 377.8938446 C-24.02165145 383.47547392 -25.20253028 389.05645977 -26.38543701 394.63702393 C-28.27005569 403.52839438 -30.14845897 412.421072 -32.02587891 421.31396484 C-32.67126265 424.37067337 -33.31668681 427.42737336 -33.96212769 430.48406982 C-34.12342198 431.24795124 -34.28471628 432.01183265 -34.45089829 432.79886198 C-35.61129446 438.29404965 -36.77252889 443.78905981 -37.93411255 449.28399658 C-44.49202283 480.30809169 -51.01733624 511.33900882 -57.53601074 542.37136841 C-59.02817561 549.47484972 -60.52120143 556.57814978 -62.01454163 563.68138409 C-63.29495701 569.77187412 -64.57491098 575.86246111 -65.85477257 581.95306754 C-66.27034746 583.93060834 -66.68598939 585.90813503 -67.10163879 587.88566017 C-70.2228692 602.73660925 -73.33406916 617.58960224 -76.42903876 632.44604802 C-76.92253769 634.81470553 -77.41625006 637.18331845 -77.91003609 639.55191612 C-78.23426701 641.10727255 -78.55849532 642.66262953 -78.88272095 644.21798706 C-79.04175687 644.98088212 -79.20079279 645.74377719 -79.36464798 646.52979028 C-80.30432422 651.03837122 -81.2422771 655.54730654 -82.17895222 660.05651188 C-82.75557281 662.83068808 -83.33363161 665.60456321 -83.91205931 668.37836313 C-84.30928457 670.28562614 -84.70465493 672.19327517 -85.0999794 674.10093307 C-85.33677288 675.23534458 -85.57356636 676.36975609 -85.8175354 677.5385437 C-86.02292749 678.52645338 -86.22831959 679.51436306 -86.43993568 680.5322094 C-87 683 -87 683 -88 686 C-108.46 686 -128.92 686 -150 686 C-151.35992685 681.92021945 -152.35605774 678.59522664 -153.03515625 674.453125 C-153.20466797 673.44378906 -153.37417969 672.43445312 -153.54882812 671.39453125 C-153.71833984 670.35683594 -153.88785156 669.31914062 -154.0625 668.25 C-154.40469265 666.17140224 -154.74960736 664.09325019 -155.09765625 662.015625 C-155.24726807 661.10071289 -155.39687988 660.18580078 -155.55102539 659.24316406 C-155.90263001 656.97559327 -155.90263001 656.97559327 -157 655 C-157.65742188 655.65484375 -158.31484375 656.3096875 -158.9921875 656.984375 C-183.95580817 680.93321434 -215.45228929 694.59021161 -250.04492188 694.35375977 C-275.11670084 693.79390838 -297.00750462 686.96726047 -315 669 C-316.11568359 667.90171875 -316.11568359 667.90171875 -317.25390625 666.78125 C-337.69895851 645.33595057 -342.19574006 613.65228425 -341.53010559 585.24298096 C-340.91134824 566.19131521 -336.19541125 547.84632526 -332.1288147 529.30807495 C-325.2602875 497.99166576 -318.59235942 466.63406467 -311.97346938 435.26412523 C-309.13510212 421.81306078 -306.28972844 408.36347526 -303.4453721 394.91367626 C-302.95244504 392.58272212 -302.45958081 390.25175469 -301.96673203 387.920784 C-297.02763157 364.56153536 -292.07508834 341.20516823 -287.109375 317.8515625 C-286.86731772 316.71316119 -286.86731772 316.71316119 -286.62037039 315.55176187 C-282.9455956 298.26993272 -279.26676765 280.98896851 -275.58447266 263.70874023 C-275.27357111 262.24968218 -274.96267137 260.79062374 -274.65177345 259.3315649 C-274.4987627 258.61348229 -274.34575195 257.89539967 -274.18810451 257.15555698 C-273.88086045 255.71365006 -273.57361813 254.27174278 -273.26637757 252.82983512 C-272.50975686 249.27896967 -271.75308607 245.72811492 -270.99631119 242.17728233 C-267.24303336 224.56579006 -263.50673315 206.95080829 -259.79198074 189.33114243 C-258.47088129 183.06919569 -257.14551734 176.80815028 -255.81980705 170.54717827 C-254.82653204 165.85417678 -253.83619398 161.16060311 -252.85369873 156.46533203 C-245.41035629 120.9049248 -245.41035629 120.9049248 -240 105 C-239.64857689 103.96015709 -239.64857689 103.96015709 -239.29005432 102.89930725 C-229.60242373 74.46404064 -214.64134004 49.35788293 -194.23046875 27.421875 C-192.24753487 25.26877692 -190.36350865 23.06856374 -188.5 20.8125 C-187.675 19.884375 -186.85 18.95625 -186 18 C-185.34 18 -184.68 18 -184 18 C-184 17.34 -184 16.68 -184 16 C-141.71552993 -30.33729468 -48.37156251 -42.5362629 0 0 Z " fill="#000000" transform="translate(2395,1730)"/>
<path d="M0 0 C1.40342982 0.00138269 1.40342982 0.00138269 2.83521175 0.00279331 C3.90518398 0.00141865 4.97515621 0.00004398 6.07755184 -0.00137234 C7.26150036 0.00222294 8.44544888 0.00581821 9.66527462 0.00952244 C10.90412411 0.00937641 12.14297359 0.00923038 13.41936398 0.00907993 C16.82624443 0.00965891 20.23306494 0.01468824 23.63993478 0.02165389 C27.19671437 0.0278879 30.75349468 0.02849126 34.31027889 0.0296793 C41.04991192 0.03279248 47.78952881 0.04100568 54.52915472 0.05102879 C62.20013009 0.06219035 69.87110621 0.06770048 77.54208767 0.07272422 C93.32591664 0.08318831 109.10972895 0.10092516 124.8935461 0.12304783 C124.22361187 17.19750295 123.27172193 34.24712055 122.22350216 51.30209446 C122.05384167 54.08324764 121.8847873 56.86443759 121.71570063 59.64562571 C121.35025404 65.65134844 120.98333687 71.65697985 120.61540699 77.66255093 C120.06829854 86.59284598 119.52352267 95.52328231 118.97917695 104.45374614 C118.00670815 120.40665139 117.0319418 136.35941562 116.05616726 152.31211898 C115.20275942 166.26433599 114.35008838 180.21659778 113.4981451 194.1689043 C113.41320557 195.55993164 113.41320557 195.55993164 113.32655009 196.97906053 C113.09666482 200.74382056 112.86678192 204.50858073 112.63690324 208.27334116 C110.48370184 243.53638959 108.32811591 278.79929192 106.17147904 314.06213039 C104.25593898 345.38308972 102.34262472 376.70418428 100.43114376 408.02539158 C98.28160771 443.24721955 96.13061125 478.46895784 93.97731543 513.69055617 C93.747856 517.44390793 93.51840056 521.19725994 93.28894711 524.95061207 C93.23245186 525.87472973 93.17595661 526.79884738 93.11774939 527.7509686 C92.26481341 541.70326017 91.41300207 555.6556201 90.56174374 569.60801411 C89.59444851 585.46220701 88.62556575 601.31630199 87.65457284 617.17026888 C87.11124657 626.04221759 86.56915613 634.91423978 86.02884169 643.78637244 C85.66790681 649.7109875 85.30534373 655.63550147 84.94145218 661.55993566 C84.73413888 664.93589834 84.52777746 668.31191183 84.32289833 671.68802361 C84.10203454 675.32568173 83.87842213 678.96316083 83.65411282 682.60060787 C83.59124751 683.64690605 83.52838221 684.69320422 83.4636119 685.77120841 C83.40285073 686.74736381 83.34208955 687.72351921 83.27948713 688.72925508 C83.22870521 689.56000923 83.17792328 690.39076338 83.12560251 691.2466919 C82.8055446 695.21383277 82.33306696 699.16736014 81.8935461 703.12304783 C48.5635461 703.12304783 15.2335461 703.12304783 -19.1064539 703.12304783 C-19.1064539 694.50555682 -18.94975896 686.13414167 -18.29615116 677.57495213 C-18.20997532 676.39596851 -18.12379948 675.2169849 -18.03501225 674.00227451 C-17.75225424 670.15024762 -17.46269963 666.29876657 -17.17286015 662.44726658 C-16.9726242 659.74980417 -16.77370662 657.05224488 -16.57470036 654.35469151 C-16.15842026 648.7221387 -15.7385205 643.0898654 -15.31617069 637.45776463 C-14.8292815 630.9647173 -14.34713534 624.4713319 -13.86773545 617.97772759 C-13.35470995 611.02899584 -12.83857474 604.08049777 -12.32134986 597.13207746 C-12.17348923 595.14322831 -12.02621699 593.15433545 -11.87894726 591.16544247 C-11.60342159 587.45152686 -11.3251877 583.73782414 -11.04615116 580.02417088 C-10.96558979 578.93256657 -10.88502842 577.84096226 -10.80202579 576.71627903 C-10.72492374 575.697542 -10.64782169 574.67880497 -10.56838322 573.62919712 C-10.50293591 572.75378615 -10.43748861 571.87837519 -10.37005806 570.97643661 C-10.03500497 567.34964742 -9.55821729 563.73715494 -9.1064539 560.12304783 C-41.7764539 560.12304783 -74.4464539 560.12304783 -108.1064539 560.12304783 C-108.7664539 563.09304783 -109.4264539 566.06304783 -110.1064539 569.12304783 C-110.92716659 571.80882835 -111.77266266 574.45886441 -112.68164921 577.1132822 C-112.93255314 577.8582848 -113.18345707 578.60328739 -113.44196415 579.37086582 C-114.26839082 581.82103764 -115.10142236 584.2689071 -115.9345789 586.71679783 C-116.52633865 588.46646248 -117.11769957 590.21626207 -117.70868778 591.96618748 C-119.27078776 596.58782462 -120.83856424 601.20751692 -122.40747929 605.82684422 C-123.94877891 610.36836466 -125.4843266 614.91182828 -127.0205164 619.45507908 C-130.08130729 628.50353019 -133.15208947 637.54856182 -136.22681522 646.59228611 C-137.50491226 650.35184716 -138.78130966 654.11197941 -140.05640507 657.87255955 C-141.65609546 662.5903691 -143.25848981 667.30725205 -144.86282444 672.02348423 C-145.46468817 673.79410124 -146.06567145 675.56501782 -146.66569614 677.33625889 C-147.49854174 679.79405878 -148.33481351 682.25066838 -149.17188358 684.7070322 C-149.4106094 685.41403767 -149.64933521 686.12104313 -149.89529514 686.849473 C-151.78345616 692.37232306 -153.92975285 697.68129522 -156.1064539 703.12304783 C-189.4364539 703.12304783 -222.7664539 703.12304783 -257.1064539 703.12304783 C-256.2626381 698.06015308 -255.01768479 693.70849585 -253.2470789 688.95117283 C-252.80296413 687.73772945 -252.80296413 687.73772945 -252.34987736 686.49977207 C-251.35675944 683.78911793 -250.35647305 681.08116275 -249.3564539 678.37304783 C-248.26744974 675.40561271 -247.1803809 672.43747275 -246.0933466 669.46931553 C-245.31838628 667.35368716 -244.54280689 665.23828546 -243.76665592 663.12309361 C-240.85883878 655.1949117 -237.97784417 647.25730602 -235.11036015 639.31445408 C-234.47719883 637.5608054 -234.47719883 637.5608054 -233.83124638 635.77172947 C-232.96622551 633.3756834 -232.10123555 630.97962617 -231.23627567 628.58355808 C-223.38789879 606.84933959 -215.44432451 585.15222033 -207.43009281 563.47866917 C-200.12952816 543.72412991 -192.97823115 523.91900577 -185.87907124 504.09151554 C-178.82722756 484.39690934 -171.68126251 464.74131116 -164.4189539 445.12304783 C-157.52482431 426.49910808 -150.7553629 407.83593312 -144.1064539 389.12304783 C-137.03693588 369.22638815 -129.81616557 349.3913367 -122.48584843 329.58935642 C-115.41247879 310.47363417 -108.47683608 291.31236719 -101.6064539 272.12304783 C-94.37239935 251.91889262 -87.05532583 231.74932172 -79.6064539 211.62304783 C-72.05769316 191.2246928 -64.63409382 170.78464176 -57.2939539 150.31054783 C-57.0493568 149.62831905 -56.80475971 148.94609028 -56.55275059 148.2431879 C-55.81687472 146.19062066 -55.08104106 144.13803829 -54.34522343 142.08545017 C-53.62374671 140.07287418 -52.90226282 138.06030075 -52.18074894 136.04773808 C-51.70795396 134.72893564 -51.23518567 133.41012364 -50.7624445 132.09130192 C-45.92427699 118.59571885 -41.03302463 105.11983135 -36.1232996 91.65014744 C-35.49264584 89.91977411 -34.86203111 88.18938655 -34.2314539 86.45898533 C-33.91423878 85.58853077 -33.59702366 84.71807621 -33.27019596 83.82124424 C-30.39204823 75.91803642 -27.52954673 68.00918446 -24.6689539 60.09961033 C-24.19346285 58.78508479 -23.71796846 57.47056046 -23.24247074 56.15603733 C-21.36642743 50.96931345 -19.49045172 45.78256573 -17.61664677 40.59503269 C-9.17373695 17.2238101 -9.17373695 17.2238101 -5.5517664 7.48242283 C-5.0955994 6.25491306 -4.63943241 5.0274033 -4.16944218 3.76269627 C-2.71814233 0.15877941 -2.71814233 0.15877941 0 0 Z M13.8935461 211.12304783 C8.01163768 225.2635048 2.88227248 239.58064188 -1.97153568 254.1035471 C-4.04347418 260.30161987 -6.13448815 266.49326076 -8.2236414 272.68554783 C-8.64068836 273.92305286 -9.05773533 275.1605579 -9.48742008 276.43556309 C-13.18041913 287.3791072 -16.96807968 298.28787269 -20.7939539 309.18554783 C-26.32589145 324.95508847 -31.74478681 340.76041438 -37.1114893 356.58691502 C-42.55011403 372.62038158 -48.08257148 388.61899083 -53.7080164 404.58789158 C-59.01796432 419.7139359 -64.03427139 434.90650032 -69.1064539 450.12304783 C-46.0064539 450.12304783 -22.9064539 450.12304783 0.8935461 450.12304783 C5.05920636 398.40983772 9.19199167 346.69402463 13.23195553 294.97082615 C13.6286781 289.89296688 14.02724633 284.81525784 14.42745113 279.73767185 C14.90326532 273.69920511 15.37508071 267.6604382 15.84400082 261.6214323 C16.01618575 259.41177581 16.18966327 257.20221954 16.3646307 254.99278164 C17.52076273 240.37735656 18.35565591 225.77456052 18.8935461 211.12304783 C17.2435461 211.12304783 15.5935461 211.12304783 13.8935461 211.12304783 Z " fill="#000000" transform="translate(2610.106453895569,1712.8769521713257)"/>
<path d="M0 0 C15.63995647 -0.07058896 31.27986878 -0.12322926 46.91994572 -0.15543652 C54.18455952 -0.17079917 61.44907344 -0.19168123 68.71362305 -0.22631836 C75.05738654 -0.25655037 81.40107759 -0.27565162 87.74491113 -0.28226548 C91.09311287 -0.28612169 94.44094579 -0.29661469 97.78911018 -0.31719017 C117.94079243 -0.43594848 138.22455506 0.06071393 157.6875 5.875 C158.59701416 6.13619629 159.50652832 6.39739258 160.44360352 6.66650391 C167.18522766 8.64887321 173.68314308 10.89774058 180 14 C180.5882959 14.28601074 181.1765918 14.57202148 181.78271484 14.86669922 C190.31850017 19.06173868 197.84189367 23.66782902 205 30 C205.85335937 30.73347656 206.70671875 31.46695312 207.5859375 32.22265625 C231.89171166 53.49933242 243.21295519 82.69584472 248 114 C248.1045752 114.66249756 248.20915039 115.32499512 248.31689453 116.00756836 C249.40700797 124.08981371 249.24397496 132.29685592 249.25 140.4375 C249.25067474 141.25779694 249.25134949 142.07809387 249.25204468 142.92324829 C249.14816955 222.81875403 219.11414867 306.64377646 162.5625 363.75 C155.10154258 371.18406518 147.68924987 378.03851465 139 384 C138.4318457 384.40186523 137.86369141 384.80373047 137.27832031 385.21777344 C111.21777248 403.65084386 81.48447925 415.0322295 50 420 C48.81792969 420.20496094 47.63585938 420.40992187 46.41796875 420.62109375 C35.61643855 422.31797553 24.90739597 422.20487812 14 422 C13.83794823 423.56150536 13.83794823 423.56150536 13.67262268 425.15455627 C12.89366957 431.34837823 11.53079843 437.42410232 10.23803711 443.52709961 C9.9509773 444.8938013 9.66420178 446.26056272 9.37768555 447.62737846 C8.59584478 451.35295616 7.8099329 455.07766463 7.02328181 458.80222917 C6.18204448 462.78862238 5.34451163 466.775794 4.50648499 470.76286316 C2.88298526 478.48387709 1.25589004 486.20412899 -0.3725571 493.92410082 C-1.68506637 500.14663137 -2.99619681 506.36945101 -4.30639648 512.59246826 C-13.91444666 558.22641458 -23.54675589 603.85526795 -33.22556686 649.47426224 C-34.00060566 653.12785513 -34.77513671 656.78155539 -35.54959106 660.43527222 C-36.74885898 666.09210407 -37.95004042 671.74852607 -39.15289497 677.40459633 C-39.58719495 679.44782925 -40.02093925 681.49118038 -40.4540844 683.53465843 C-41.03674908 686.28273724 -41.62157148 689.03034756 -42.20703125 691.77783203 C-42.46061197 692.97716574 -42.46061197 692.97716574 -42.71931553 694.20072842 C-43.35946941 697.19543575 -44.03065592 700.09196775 -45 703 C-79.32 703 -113.64 703 -149 703 C-147.87499383 693.99995062 -147.87499383 693.99995062 -147.21517944 690.88235474 C-147.06515756 690.16557682 -146.91513567 689.4487989 -146.76056767 688.71030045 C-146.59771998 687.94883587 -146.4348723 687.18737129 -146.26708984 686.40283203 C-146.0917015 685.56972378 -145.91631315 684.73661552 -145.73561001 683.87826157 C-145.14721333 681.08743395 -144.55407745 678.29763557 -143.9609375 675.5078125 C-143.53209111 673.47890896 -143.10352587 671.44994597 -142.67521667 669.42092896 C-141.49545167 663.83646867 -140.31144979 658.25291395 -139.12669754 652.66950989 C-138.11197917 647.88476723 -137.09973035 643.09950353 -136.08751011 638.31423187 C-132.70255995 622.31197023 -129.30945836 606.31144294 -125.91468048 590.31126404 C-124.99111016 585.95823649 -124.06777087 581.60515995 -123.14447021 577.2520752 C-114.35079916 535.79309658 -105.5460513 494.33647395 -96.73698521 452.88076401 C-92.00100717 430.59303166 -87.26689263 408.30490345 -82.53291321 386.01674652 C-81.81293872 382.62706551 -81.09293528 379.23739065 -80.3729248 375.84771729 C-72.33028796 337.98414766 -64.29555669 300.11890331 -56.26386976 262.2530098 C-55.81322542 260.12842004 -55.36257803 258.00383093 -54.91193008 255.87924194 C-49.62078181 230.93396192 -44.3298792 205.98862976 -39.04052734 181.04296875 C-38.80677745 179.9405569 -38.57302755 178.83814505 -38.33219433 177.70232677 C-37.41589824 173.38087526 -36.49960287 169.05942359 -35.5833149 164.73797035 C-31.98707137 147.77736162 -28.38874128 130.8171964 -24.78892517 113.85734558 C-22.34394639 102.3375723 -19.90158372 90.81724763 -17.46115875 79.29650879 C-15.57222148 70.3798993 -13.68126794 61.46371881 -11.78890228 52.5478363 C-10.66399767 47.24746205 -9.54004011 41.94689117 -8.41845703 36.64581299 C-7.384564 31.75927711 -6.34815064 26.87328292 -5.30973053 21.98770714 C-4.92911792 20.19473143 -4.54945887 18.40155301 -4.17079926 16.60816383 C-3.6551269 14.1665359 -3.13610835 11.72564332 -2.61621094 9.28491211 C-2.465728 8.56840548 -2.31524506 7.85189884 -2.16020203 7.11367989 C-1.1141202 2.2282404 -1.1141202 2.2282404 0 0 Z M81 106 C76.76314612 124.06206962 72.77259614 142.16679221 68.9296875 160.31640625 C68.36209455 162.99015808 67.79383689 165.66376855 67.22561646 168.33738708 C66.03920487 173.92146475 64.85444009 179.50588955 63.67089844 185.09057617 C62.04850629 192.7460152 60.42301235 200.400793 58.79690695 208.055444 C51.15574905 244.02809363 43.56280874 280.01079647 36 316 C38.683633 316.02041504 41.36710734 316.03520866 44.05078125 316.046875 C44.80137817 316.05315918 45.5519751 316.05944336 46.32531738 316.06591797 C66.62759464 316.131888 86.84522694 310.69153028 101.73046875 296.359375 C132.86354994 263.99383104 143.8680879 196.29127768 143.2109375 152.61328125 C142.77746711 139.78309288 139.88006809 128.3400859 130.375 119.25 C117.69778126 109.03110124 102.09658407 105.92062986 86.19140625 105.98046875 C85.21502197 105.98328857 84.2386377 105.9861084 83.23266602 105.98901367 C82.49588623 105.99263916 81.75910645 105.99626465 81 106 Z " fill="#000000" transform="translate(2888,1713)"/>
<path d="M0 0 C29.96188048 -0.80172442 60.92141899 4.97862221 84.0390625 25.16015625 C107.59409388 47.55428783 113.23016795 79.9147741 114.2578125 110.98046875 C114.77481036 135.35013596 114.38348501 165.30480039 105.0390625 188.16015625 C92.34805003 189.33629369 79.65681315 190.5099761 66.96528339 191.6805191 C61.07220195 192.22411741 55.17920136 192.76856318 49.28637695 193.31494141 C43.60019599 193.84212844 37.91381401 194.36709495 32.22728539 194.89051819 C30.05708689 195.09067099 27.88696221 195.29162572 25.71691322 195.49339294 C22.67906099 195.77570922 19.64095958 196.05518114 16.6027832 196.33398438 C15.70438721 196.41814102 14.80599121 196.50229767 13.88037109 196.58900452 C9.9193444 196.94976516 6.02185647 197.26826645 2.0390625 197.16015625 C2.74959584 188.70854911 4.11597263 180.4311332 5.578125 172.08203125 C9.1857513 151.08241548 12.59672651 123.83688746 -0.21875 105.1875 C-4.21953186 100.53188165 -7.96327283 97.59731568 -14.1484375 96.6953125 C-25.71437298 96.36065002 -34.20900713 100.15208261 -42.8046875 107.80078125 C-62.08717111 127.95974139 -68.62449196 162.88388302 -68.3659668 189.71801758 C-68.13234349 198.80104951 -67.12062117 207.34366981 -64.9609375 216.16015625 C-64.67863281 217.37703125 -64.39632813 218.59390625 -64.10546875 219.84765625 C-54.45003198 258.00892079 -34.00982139 295.8042055 -16.6328125 330.87890625 C7.89185176 380.62814748 33.35281001 436.92730163 35.0390625 493.16015625 C35.07902344 494.34480469 35.11898438 495.52945313 35.16015625 496.75 C36.20870868 558.49123452 11.56238839 627.21739974 -30.9609375 672.16015625 C-31.72921875 672.98128906 -32.4975 673.80242188 -33.2890625 674.6484375 C-55.7821817 697.97597886 -86.12937384 712.30993817 -117.9609375 717.16015625 C-119.10433594 717.36511719 -120.24773437 717.57007812 -121.42578125 717.78125 C-158.27170389 723.58218245 -202.48518627 720.07052301 -233.3984375 697.72265625 C-255.72261737 680.02666001 -265.60873309 654.83656504 -269.51953125 627.21484375 C-273.19985996 591.85233442 -266.68676489 556.50519455 -260.44921875 521.84765625 C-260.24629715 520.70021187 -260.24629715 520.70021187 -260.03927612 519.52958679 C-259.07811229 514.27733104 -259.07811229 514.27733104 -257.9609375 513.16015625 C-255.02653629 512.79488996 -252.10563478 512.48949149 -249.16186523 512.22045898 C-247.77640755 512.08856674 -247.77640755 512.08856674 -246.36296082 511.95401001 C-243.29055613 511.66276442 -240.21758117 511.37810081 -237.14453125 511.09375 C-235.01275498 510.8936824 -232.88100582 510.69332565 -230.74928284 510.49269104 C-226.26956069 510.07208458 -221.78955618 509.65466288 -217.30932617 509.23950195 C-211.57791816 508.70819499 -205.84722129 508.16962727 -200.11671352 507.62870693 C-195.70823097 507.2133029 -191.29941529 506.80152724 -186.89048958 506.39085579 C-184.77856709 506.19375429 -182.66674279 505.99559761 -180.55502129 505.79635429 C-177.59226277 505.51742045 -174.62909515 505.24331467 -171.66577148 504.97045898 C-170.79843384 504.88787338 -169.93109619 504.80528778 -169.03747559 504.72019958 C-163.98767103 504.2612424 -159.03176732 504.08447903 -153.9609375 504.16015625 C-154.09669189 504.86809326 -154.23244629 505.57603027 -154.37231445 506.30541992 C-166.60742239 561.84841744 -166.60742239 561.84841744 -152.2109375 614.91015625 C-145.85313157 621.26796218 -137.92301903 622.45955744 -129.29296875 622.47705078 C-119.33134647 622.29597102 -111.29993342 618.86799852 -103.9609375 612.16015625 C-103.25453125 611.51949219 -102.548125 610.87882812 -101.8203125 610.21875 C-83.12869957 591.42910413 -73.32550721 558.08698065 -71.9609375 532.16015625 C-71.88166016 530.90138672 -71.88166016 530.90138672 -71.80078125 529.6171875 C-70.86584466 500.79675101 -82.1980179 473.2867562 -92.9609375 447.16015625 C-93.32912598 446.25265625 -93.69731445 445.34515625 -94.07666016 444.41015625 C-99.37731896 431.36857331 -105.48784882 418.7356123 -111.66357422 406.09301758 C-122.9349184 383.01790885 -133.89366411 359.78909782 -143.9609375 336.16015625 C-144.42483887 335.07428223 -144.88874023 333.9884082 -145.36669922 332.86962891 C-160.87561726 296.34419952 -170.0952296 259.5587018 -174.2109375 220.09765625 C-174.29118164 219.33146973 -174.37142578 218.5652832 -174.45410156 217.77587891 C-179.00911276 169.75758646 -160.38908172 112.64489694 -131.9609375 74.16015625 C-131.20554687 73.12246094 -130.45015625 72.08476563 -129.671875 71.015625 C-124.04755291 63.42533384 -117.8765199 56.42927684 -111.34667969 49.60888672 C-110.10728121 48.31315195 -108.88086518 47.00502805 -107.65625 45.6953125 C-79.3267292 16.17242361 -40.25444206 1.62764509 0 0 Z " fill="#000000" transform="translate(1807.9609375,1704.83984375)"/>
<path d="M0 0 C1.02137054 -0.00276947 2.04274109 -0.00553894 3.09506226 -0.00839233 C14.35991962 -0.03070975 25.5258759 0.06168742 36.75 1.125 C36.75 1.455 36.75 1.785 36.75 2.125 C35.20904663 2.18445801 35.20904663 2.18445801 33.63696289 2.24511719 C-49.92168776 5.55220388 -131.43332175 19.11508852 -211.25 44.125 C-211.90299072 44.32891357 -212.55598145 44.53282715 -213.22875977 44.74291992 C-244.2533394 54.45121101 -274.72742339 66.1318962 -304.24560547 79.74707031 C-307.15513677 81.08149211 -310.07652418 82.38497055 -313.00390625 83.6796875 C-338.50339814 95.03138258 -363.35601519 107.95986692 -387.27197266 122.34472656 C-390.49487106 124.27138464 -393.7357064 126.16509874 -396.98046875 128.0546875 C-411.06883539 136.2728807 -424.81483169 144.87243139 -438.25 154.125 C-439.18295898 154.764375 -440.11591797 155.40375 -441.07714844 156.0625 C-462.21784449 170.56707136 -482.831491 185.65683975 -502.62109375 201.9609375 C-504.35728158 203.39013224 -506.0993864 204.81217276 -507.84765625 206.2265625 C-519.29168074 215.49639088 -530.35783194 225.21505643 -541.25 235.125 C-542.55904297 236.29482422 -542.55904297 236.29482422 -543.89453125 237.48828125 C-551.09298156 243.97771867 -557.95845847 250.75924064 -564.75585938 257.66772461 C-568.85318286 261.81285021 -573.02123465 265.77097012 -577.47802734 269.52905273 C-580.00658763 271.80642923 -582.13974796 274.36472533 -584.3359375 276.95703125 C-586.54225484 279.45602333 -588.87683693 281.78410047 -591.25 284.125 C-594.82083512 287.65813399 -598.21551225 291.25873095 -601.48046875 295.07421875 C-603.48786023 297.40066583 -605.55466638 299.66692686 -607.625 301.9375 C-611.47900618 306.20675264 -615.12378482 310.60964387 -618.73828125 315.08203125 C-621.65479853 318.61541688 -624.66738162 322.05532123 -627.6875 325.5 C-633.00983954 331.59514723 -637.99425541 337.85069421 -642.86767578 344.31298828 C-644.41210006 346.33748793 -645.98281256 348.33965816 -647.55859375 350.33984375 C-655.4639177 360.38017422 -663.00597212 370.59859045 -670.25 381.125 C-670.84458008 381.98673828 -671.43916016 382.84847656 -672.05175781 383.73632812 C-680.32068236 395.73671682 -688.45400167 407.81164311 -696.25 420.125 C-696.99515869 421.29651611 -696.99515869 421.29651611 -697.75537109 422.49169922 C-706.7949768 436.74180906 -715.15012934 451.32321698 -723.25 466.125 C-723.86133789 467.23794434 -724.47267578 468.35088867 -725.10253906 469.49755859 C-749.6203134 514.24664907 -769.69294994 560.84785085 -786.25 609.125 C-786.65573242 610.30803711 -787.06146484 611.49107422 -787.47949219 612.70996094 C-812.19724894 685.49111146 -826.19452081 761.51386799 -831.25 838.125 C-831.2983902 838.82241302 -831.3467804 839.51982605 -831.39663696 840.2383728 C-832.45337391 855.75098771 -832.45114056 871.26984009 -832.4375 886.8125 C-832.43723312 887.49442917 -832.43696625 888.17635834 -832.43669128 888.87895203 C-832.42518726 912.34114206 -832.02779513 935.72187633 -830.25 959.125 C-830.1891925 959.93686768 -830.12838501 960.74873535 -830.06573486 961.58520508 C-824.71684258 1032.1693044 -811.18674201 1101.81745013 -789.25 1169.125 C-789.01559204 1169.84671387 -788.78118408 1170.56842773 -788.53967285 1171.31201172 C-775.29105807 1212.02892318 -758.76910537 1251.31325333 -739.91064453 1289.74072266 C-738.39071257 1292.83823763 -736.8804126 1295.94027441 -735.37109375 1299.04296875 C-728.8440226 1312.36980698 -721.6866348 1325.2864397 -714.25 1338.125 C-713.58701904 1339.27476318 -713.58701904 1339.27476318 -712.91064453 1340.44775391 C-710.06946214 1345.36795848 -707.17733471 1350.25560723 -704.25 1355.125 C-703.56381592 1356.2704126 -703.56381592 1356.2704126 -702.86376953 1357.43896484 C-684.90183956 1387.29908962 -664.5189356 1415.55184993 -643.25 1443.125 C-642.72100098 1443.81142578 -642.19200195 1444.49785156 -641.64697266 1445.20507812 C-635.89631495 1452.64867755 -629.96594676 1459.90728438 -623.8515625 1467.0546875 C-621.50742299 1469.80234045 -619.25116684 1472.61300228 -617 1475.4375 C-612.50627715 1480.96948372 -607.65140723 1486.13194839 -602.74121094 1491.29223633 C-599.62312104 1494.5718489 -596.5656053 1497.88067021 -593.6015625 1501.30078125 C-590.93412528 1504.37510933 -588.16784978 1507.28393574 -585.25 1510.125 C-582.31881809 1513.02091958 -579.48596826 1515.92742571 -576.8125 1519.0625 C-570.52177817 1526.39178439 -563.55411629 1533.11863141 -556.2109375 1539.3828125 C-553.96368115 1541.3793789 -551.86105073 1543.48512946 -549.75 1545.625 C-546.39743221 1549.01768399 -542.95524318 1552.21600684 -539.3359375 1555.3203125 C-536.99974499 1557.34151276 -534.72035149 1559.41878839 -532.4375 1561.5 C-528.14391368 1565.37533743 -523.71911998 1569.0472131 -519.22265625 1572.68359375 C-515.91248057 1575.40220058 -512.67517546 1578.19598579 -509.4375 1581 C-503.09000024 1586.47786012 -496.57089582 1591.69907768 -489.93505859 1596.82226562 C-488.32325659 1598.06836465 -486.71810175 1599.32304745 -485.11328125 1600.578125 C-475.99886627 1607.66838508 -466.64415237 1614.41174021 -457.25 1621.125 C-456.165979 1621.90327148 -456.165979 1621.90327148 -455.06005859 1622.69726562 C-444.65459073 1630.16396561 -434.06102528 1637.26033057 -423.25 1644.125 C-422.47333984 1644.62032227 -421.69667969 1645.11564453 -420.89648438 1645.62597656 C-405.41053071 1655.50062313 -389.7830327 1664.96224429 -373.67626953 1673.79052734 C-371.22536361 1675.13855026 -368.78227087 1676.49996546 -366.33984375 1677.86328125 C-326.21189542 1700.15658588 -284.4250486 1718.58886246 -241.25 1734.125 C-240.44709534 1734.41526062 -239.64419067 1734.70552124 -238.81695557 1735.00457764 C-211.66231323 1744.81114971 -184.22199506 1752.98996213 -156.25 1760.125 C-155.54137817 1760.30677795 -154.83275635 1760.48855591 -154.10266113 1760.67584229 C-116.38713689 1770.33229133 -77.86786843 1776.45356356 -39.25 1781.125 C-38.16906067 1781.25584991 -38.16906067 1781.25584991 -37.06628418 1781.38934326 C-19.60981365 1783.48202963 -2.13495248 1784.64878787 15.41967773 1785.47949219 C16.5607473 1785.53443344 16.5607473 1785.53443344 17.72486877 1785.59048462 C19.79022528 1785.68868178 21.85580029 1785.78225264 23.92138672 1785.87548828 C27.90238383 1786.13493089 31.79756319 1786.59240213 35.75 1787.125 C35.75 1787.455 35.75 1787.785 35.75 1788.125 C25.84502537 1789.32782601 15.96048461 1789.32394697 6 1789.3125 C5.10861328 1789.31222809 4.21722656 1789.31195618 3.29882812 1789.31167603 C-76.30271581 1789.20133411 -156.55572987 1778.11308134 -359.25 1710.125 C-360.40306641 1709.60260742 -361.55613281 1709.08021484 -362.74414062 1708.54199219 C-376.70138953 1702.19675991 -390.4751071 1695.64305333 -403.96044922 1688.34765625 C-406.33643052 1687.07884474 -408.72899831 1685.84790714 -411.12890625 1684.625 C-439.50629371 1670.12197381 -467.00136987 1653.18737149 -493.25 1635.125 C-493.99636719 1634.61146973 -494.74273438 1634.09793945 -495.51171875 1633.56884766 C-512.822109 1621.62091526 -529.84511368 1609.29351724 -546.25 1596.125 C-546.87970703 1595.62145996 -547.50941406 1595.11791992 -548.15820312 1594.59912109 C-560.79969118 1584.47658965 -573.07197965 1573.96702091 -585.0703125 1563.08984375 C-587.0483952 1561.30673336 -589.048558 1559.55485231 -591.0625 1557.8125 C-602.56360716 1547.75261543 -613.44004085 1537.09410741 -624.22705078 1526.27832031 C-626.63850966 1523.86146008 -629.05532439 1521.4500471 -631.47265625 1519.0390625 C-633.03157102 1517.47948749 -634.59017586 1515.9196026 -636.1484375 1514.359375 C-636.85898285 1513.65085388 -637.5695282 1512.94233276 -638.30160522 1512.21234131 C-642.25498075 1508.24059273 -646.03894872 1504.17502666 -649.69000244 1499.92311096 C-652.2493956 1496.97305962 -654.94557202 1494.15306267 -657.625 1491.3125 C-662.27315533 1486.34526907 -666.69478536 1481.26923967 -670.94921875 1475.95703125 C-673.60909816 1472.68298614 -676.36256685 1469.49988913 -679.125 1466.3125 C-684.53155611 1460.04536413 -689.68114998 1453.61039546 -694.74462891 1447.06445312 C-696.3876503 1444.94765748 -698.04268508 1442.84061113 -699.69921875 1440.734375 C-706.26851903 1432.36655026 -712.70110986 1423.9409092 -718.7890625 1415.21484375 C-720.51797428 1412.74166781 -722.25954557 1410.27756594 -724 1407.8125 C-731.90941745 1396.57090501 -739.54814474 1385.21837411 -746.76708984 1373.52148438 C-748.3195506 1371.01260147 -749.88708007 1368.51359596 -751.45703125 1366.015625 C-785.26767688 1312.07252827 -813.40702583 1254.29068912 -834.25 1194.125 C-834.4884967 1193.43895691 -834.72699341 1192.75291382 -834.97271729 1192.04608154 C-849.79293799 1149.36642143 -862.38005441 1105.65857887 -870.25 1061.125 C-870.39266296 1060.32356567 -870.53532593 1059.52213135 -870.68231201 1058.69641113 C-885.89046875 973.03809428 -890.8933617 884.76599738 -881.25 798.125 C-881.08811174 796.63005688 -880.92632275 795.135103 -880.76464844 793.64013672 C-879.79002118 784.77111215 -878.5781212 775.94743854 -877.25 767.125 C-877.04437027 765.72401535 -876.83914336 764.32297153 -876.63427734 762.921875 C-864.62569529 681.31686074 -841.16782741 601.46864453 -797.25 506.125 C-796.93075562 505.46695374 -796.61151123 504.80890747 -796.28259277 504.13092041 C-787.99983523 487.08517889 -779.4169005 470.27998531 -769.86523438 453.90234375 C-768.18089538 451.00617682 -766.51895576 448.09791642 -764.859375 445.1875 C-757.32111118 432.03213698 -749.31729784 419.25275213 -740.91748047 406.63134766 C-739.43879778 404.40877716 -737.96913332 402.18067049 -736.50390625 399.94921875 C-722.71877571 379.01453955 -707.94034261 358.67148972 -692.25 339.125 C-691.74645996 338.49529297 -691.24291992 337.86558594 -690.72412109 337.21679688 C-683.80238271 328.57260806 -676.71389654 320.09952025 -669.421875 311.765625 C-667.36909034 309.41851641 -665.33738506 307.05634194 -663.328125 304.671875 C-650.12424122 289.00721014 -635.74464 274.45215421 -621.24707031 259.99169922 C-618.72081971 257.47088248 -616.20005856 254.94466262 -613.6796875 252.41796875 C-612.04719606 250.78613708 -610.41439499 249.15461509 -608.78125 247.5234375 C-608.04152954 246.78169281 -607.30180908 246.03994812 -606.53967285 245.27572632 C-602.48283391 241.23693545 -598.33722505 237.36281316 -593.99494934 233.63183594 C-591.41357435 231.40271185 -588.93319264 229.07465916 -586.4375 226.75 C-581.81566169 222.47980741 -577.05576052 218.44274627 -572.15234375 214.49609375 C-568.86036472 211.80668423 -565.65005506 209.03318046 -562.4375 206.25 C-556.16355967 200.83780835 -549.72110288 195.68508884 -543.16748047 190.6171875 C-541.11280971 189.01823822 -539.0733803 187.40110418 -537.03515625 185.78125 C-528.61420434 179.11640524 -520.04979534 172.80266679 -511.13916016 166.80688477 C-506.30645409 163.55221528 -501.59304149 160.18959239 -496.9375 156.6875 C-488.30673779 150.24950076 -479.19079432 144.57732836 -470.06103516 138.88037109 C-467.36238387 137.19517892 -464.670917 135.49902893 -461.98046875 133.80078125 C-380.12403073 82.359423 -289.38802913 44.98601242 0 0 Z " fill="#000000" transform="translate(1174.25,793.875)"/>
<path d="M0 0 C8.37733125 6.73690327 12.37623049 15.56771889 14.1965332 25.94042969 C14.49137462 27.4756106 14.49137462 27.4756106 14.79217243 29.04180527 C15.22552875 31.3108928 15.64990223 33.58170943 16.06653214 35.85392761 C16.77425645 39.70169686 17.50973224 43.5436884 18.25204468 47.3848877 C19.85797919 55.71783768 21.42971586 64.05708744 22.99824476 72.39714646 C23.8168811 76.74703422 24.63823999 81.09640802 25.45925903 85.44584656 C26.8773277 92.96011672 28.29379616 100.47468701 29.70913696 107.98947144 C31.76706471 118.91596897 33.82757697 129.84197789 35.88881576 140.76785123 C36.85460814 145.88716815 37.8203126 151.00650166 38.78599548 156.12583923 C38.9792511 157.15033489 39.17250672 158.17483055 39.37161857 159.23037153 C40.75758171 166.57799161 42.14306954 173.92570122 43.52833557 181.27345276 C49.04408309 210.52980151 54.56640864 239.784902 60.09375 269.0390625 C60.47656913 271.06523497 60.85938736 273.0914076 61.24220467 275.11758041 C63.1196024 285.05419311 64.99710444 294.9907861 66.87466431 304.92736816 C68.82372682 315.24239032 70.77268423 325.55743234 72.72144186 335.8725121 C73.0618815 337.67449149 73.4023304 339.47646913 73.74278867 341.27844501 C75.54559607 350.82036265 77.34775159 360.36240241 79.14793396 369.90481567 C79.77517558 373.22935772 80.40246746 376.55389028 81.02978516 379.87841797 C81.18305696 380.69076629 81.33632877 381.50311461 81.49424517 382.34007955 C83.53748817 393.16778779 85.58963182 403.99377003 87.6494379 414.81833935 C88.73648891 420.53141416 89.82057455 426.24505039 90.90383285 431.95884544 C91.76798941 436.51559327 92.63601273 441.07158098 93.50707388 445.62701368 C94.158316 449.03915145 94.80367639 452.45239653 95.44995117 455.86547852 C95.68443907 457.08490458 95.91892696 458.30433064 96.16052055 459.560709 C96.37081461 460.67714979 96.58110867 461.79359058 96.79777527 462.94386292 C96.98140216 463.90800393 97.16502905 464.87214495 97.35422039 465.86550236 C97.73272352 468.46241138 97.81408062 470.90739585 97.7421875 473.52734375 C99.5984375 473.86765625 99.5984375 473.86765625 101.4921875 474.21484375 C107.88476534 475.64436509 115.15521208 477.77165819 120.40368581 481.80378598 C124.32341172 484.74782075 127.05011796 485.89575195 131.98609543 485.46632862 C133.94277964 485.18420829 135.89507559 484.87037558 137.84246826 484.52998352 C139.42262069 484.2924226 139.42262069 484.2924226 141.03469539 484.05006248 C143.21688989 483.7214412 145.39737721 483.38128235 147.57600307 483.02977967 C151.38343751 482.42558498 155.19861872 481.9120449 159.02063286 481.41007417 C161.7776874 481.04768865 164.53258974 480.6717607 167.28728294 480.29186153 C168.23489203 480.16120261 169.18250112 480.03054369 170.15882564 479.8959254 C171.14185263 479.76035547 172.12487962 479.62478554 173.13769531 479.48510742 C175.28044776 479.19072299 177.42321788 478.89646711 179.5660038 478.60232639 C185.38336871 477.80339928 191.20048307 477.00266139 197.01755285 476.20158863 C203.32919349 475.3327355 209.6410681 474.46558508 215.95291138 473.59820557 C226.89328402 472.0945258 237.83350625 470.58975575 248.77362061 469.084198 C260.29603017 467.49850615 271.81852434 465.91343125 283.34112549 464.32913208 C284.06286177 464.22989623 284.78459806 464.13066038 285.52820514 464.02841739 C288.46055153 463.62523232 291.39289826 463.22204971 294.32524549 462.81887074 C333.00318385 457.50087793 371.68054489 452.17869147 410.35776973 446.85551214 C412.7416542 446.52741715 415.12553913 446.19932544 417.50942421 445.87123489 C471.56842695 438.43117287 525.62729002 430.99009511 579.68566895 423.54550171 C580.40114883 423.44697152 581.11662871 423.34844134 581.85378981 423.24692539 C588.95754284 422.26865125 596.06128902 421.29032735 603.16499603 420.31171903 C606.62720555 419.83476429 610.08941945 419.35784126 613.55163574 418.88093567 C614.22959544 418.78754877 614.90755514 418.69416186 615.60605907 418.59794506 C625.55485606 417.22760002 635.50397269 415.85959669 645.45324707 414.49272156 C650.48545893 413.80116349 655.51764284 413.1094024 660.54980469 412.41748047 C661.76296797 412.25068728 662.97613125 412.08389408 664.22605705 411.91204655 C679.7736303 409.77354039 695.31741534 407.60983167 710.8574903 405.41751993 C716.52222937 404.61939113 722.18770726 403.82652166 727.85320389 403.03379041 C732.90453399 402.32622965 737.9544176 401.60939791 743.00326061 400.88431406 C746.01733267 400.45368877 749.03261742 400.03209209 752.04830885 399.61297297 C754.02114662 399.33602663 755.99242994 399.04807212 757.96359634 398.75946999 C771.52526365 396.89381614 785.04644783 395.10362649 796.7421875 403.52734375 C803.88151115 409.58637501 807.74861824 416.81040155 809.1171875 426.0625 C809.5498107 434.5932888 806.82335454 442.4701679 801.3046875 448.96484375 C800.13828817 450.17307597 798.95295158 451.36357279 797.7421875 452.52734375 C796.9790625 453.26984375 796.2159375 454.01234375 795.4296875 454.77734375 C785.22983371 461.41910901 773.42480504 462.16089455 761.64672852 463.72363281 C759.47695747 464.02125922 757.30735036 464.32008277 755.13789463 464.61999893 C750.45753953 465.26478537 745.77621578 465.90180627 741.09401321 466.53303528 C733.71720136 467.52833882 726.34349744 468.54542804 718.97018433 469.56628418 C704.64867262 471.54673929 690.3246541 473.50854063 676.000057 475.4665278 C668.28194188 476.52153924 660.56406558 477.5782935 652.84619053 478.63505951 C638.70733166 480.57096621 624.56829196 482.50554898 610.42913818 484.43930054 C596.54334647 486.33840158 582.65763751 488.23810589 568.77203369 490.13858032 C567.47105512 490.31663981 567.47105512 490.31663981 566.14379415 490.49829646 C562.62845567 490.97942747 559.11311764 491.46056171 555.59778021 491.94170044 C512.8992622 497.78576639 470.20028534 503.62647597 427.50117128 509.46618509 C421.52914674 510.28294563 415.55712527 511.09972857 409.5851059 511.91652679 C408.75559073 512.02998028 407.92607556 512.14343377 407.07142356 512.26032525 C406.24491988 512.37336686 405.41841619 512.48640847 404.56686693 512.60287559 C324.2925696 523.5820577 244.0177239 534.55722459 163.7421875 545.52734375 C163.75593414 546.4582785 163.75593414 546.4582785 163.7699585 547.40802002 C163.80671091 550.2654704 163.8292197 553.12287078 163.8515625 555.98046875 C163.86622559 556.9564502 163.88088867 557.93243164 163.89599609 558.93798828 C163.94710677 567.67791451 162.46738261 575.26629933 159.7421875 583.52734375 C159.46503906 584.42195313 159.18789062 585.3165625 158.90234375 586.23828125 C151.57738016 607.09923745 134.30290842 623.25439804 114.89624023 632.84472656 C93.821467 642.69891307 69.73442627 643.1294276 47.9921875 635.27734375 C24.36194402 625.49226147 8.43287765 608.54580557 -1.6328125 585.40234375 C-2.21093876 583.7899549 -2.75155795 582.1637221 -3.2578125 580.52734375 C-3.70253906 579.10421875 -3.70253906 579.10421875 -4.15625 577.65234375 C-8.3999491 561.45620773 -8.01406159 543.24341857 -2.2578125 527.52734375 C-1.731875 525.98433594 -1.731875 525.98433594 -1.1953125 524.41015625 C5.51734446 506.463122 18.8298079 492.62846246 34.7421875 482.52734375 C33.96898241 473.75162765 32.24654363 465.16851168 30.58813477 456.52783203 C30.25792638 454.79363655 29.92802382 453.05938281 29.59840012 451.3250761 C28.69605171 446.58207751 27.7894467 441.83990117 26.88214898 437.09784722 C25.90807982 432.00262125 24.93805099 426.90662608 23.96757507 421.81071472 C22.29347884 413.02294544 20.6169814 404.23563711 18.93884277 395.44863892 C16.29199625 381.58906496 13.64997218 367.72857409 11.00878906 353.86791992 C10.11229777 349.16349343 9.21577683 344.45907258 8.31924438 339.75465393 C8.09620231 338.58425503 7.87316023 337.41385612 7.6433593 336.20799059 C6.04902009 327.84212569 4.45401463 319.47638797 2.85873413 311.11070251 C-5.57767771 266.86851323 -13.98673389 222.62114835 -22.38777739 178.37223125 C-23.63182656 171.81982931 -24.87611601 165.26747305 -26.12057495 158.71514893 C-26.37771752 157.36120832 -26.37771752 157.36120832 -26.64005488 155.97991538 C-27.48835648 151.51339276 -28.33674656 147.04688698 -29.18528843 142.58041 C-30.7868562 134.14962721 -32.38698819 125.71857712 -33.98365784 117.28686523 C-34.58593728 114.10738905 -35.18840271 110.92794816 -35.79101562 107.74853516 C-35.93698649 106.97830222 -36.08295736 106.20806928 -36.23335159 105.41449594 C-38.20934982 94.99288479 -40.21204807 84.57675248 -42.23638678 74.16442883 C-43.15419808 69.43729754 -44.06518421 64.70884415 -44.97730255 59.9806118 C-45.45825872 57.4990465 -45.94284632 55.01818165 -46.43144989 52.53811073 C-47.09258654 49.18228447 -47.7414235 45.82429162 -48.38769531 42.46557617 C-48.57981346 41.50905592 -48.77193161 40.55253567 -48.96987152 39.56702995 C-51.14825009 28.08768162 -51.466616 17.26802135 -44.71484375 7.234375 C-33.39376985 -6.57370827 -15.17434186 -9.89745135 0 0 Z " fill="#000000" transform="translate(1135.2578125,1216.47265625)"/>
<path d="M0 0 C34.65 0 69.3 0 105 0 C93.51638922 56.26969283 93.51638922 56.26969283 89.1015625 76.92578125 C88.58782887 79.33764586 88.07429711 81.74955348 87.5609436 84.16149902 C86.3403248 89.89453687 85.11794651 95.62719725 83.89476979 101.35968983 C82.28413293 108.90884845 80.67670534 116.45869005 79.06933594 124.00854492 C78.76609632 125.43281986 78.46285586 126.85709463 78.15961456 128.28136921 C77.70119582 130.43449092 77.24278003 132.58761327 76.78437757 134.74073845 C75.85795087 139.09209764 74.93130195 143.44340943 74.00447226 147.7946828 C69.69476041 168.02793675 65.39361424 188.2629925 61.1015625 208.5 C60.96077664 209.16380102 60.81999078 209.82760204 60.67493868 210.51151824 C58.96346368 218.58125531 57.25241424 226.65108258 55.54151666 234.72094208 C52.92094328 247.08140827 50.29955675 259.44170205 47.6781621 271.80199409 C47.23403702 273.89612491 46.7899212 275.99025769 46.34580612 278.08439064 C41.67625312 300.10247206 37.00324565 322.11981887 32.328125 344.13671875 C32.16749368 344.89319655 32.00686236 345.64967435 31.84136343 346.42907572 C28.74080296 361.03081758 25.63995549 375.63249849 22.53887939 390.23413086 C20.58570476 399.43080332 18.63262983 408.62749695 16.6796875 417.82421875 C16.51924029 418.57978609 16.35879308 419.33535342 16.19348383 420.11381674 C11.50596221 442.1882329 6.82288137 464.26358668 2.14403534 486.33984327 C-0.36203555 498.1641203 -2.86842333 509.98833018 -5.375 521.8125 C-5.5175503 522.48495569 -5.66010059 523.15741138 -5.8069706 523.85024452 C-12.61944553 555.98648782 -19.4452999 588.11982767 -26.3046875 620.24609375 C-26.57677158 621.5204384 -26.84885567 622.79478306 -27.12918472 624.10774422 C-32.74511692 650.40680334 -38.3742807 676.70303305 -44 703 C-78.65 703 -113.3 703 -149 703 C-145.00045295 683.99990456 -141.00065885 664.99986133 -137 646 C-136.60583012 644.12800179 -136.60583012 644.12800179 -136.2036972 642.21818542 C-132.28401925 623.60328692 -128.36215661 604.98884949 -124.4375 586.375 C-124.29579423 585.70290812 -124.15408847 585.03081623 -124.00808859 584.33835793 C-113.36470694 533.85924013 -102.65779392 483.3938294 -91.92057139 432.93459755 C-91.49674898 430.94285476 -91.07292975 428.95111128 -90.64911079 426.95936775 C-90.08356824 424.30159238 -89.51800716 421.64382094 -88.95243645 418.98605156 C-82.66123025 389.42135248 -76.38859757 359.85272131 -70.11855698 330.28352737 C-67.64347524 318.61120242 -65.16806766 306.93894656 -62.69261384 295.26670051 C-62.39739887 293.87470274 -62.10218565 292.48270461 -61.80697417 291.09070611 C-54.45765906 256.43685031 -47.10078771 221.78459939 -39.742661 187.13261366 C-39.25175645 184.82077174 -38.76085526 182.5089291 -38.26995468 180.19708633 C-33.51368011 157.79797749 -28.75695358 135.39896464 -24 113 C-23.68984221 111.5395635 -23.37968443 110.079127 -23.06952667 108.61869049 C-20.94872512 98.63250598 -18.82789143 88.6463283 -16.70703125 78.66015625 C-16.44224157 77.41338041 -16.1774519 76.16660458 -15.90463829 74.88204765 C-10.60345828 49.92128734 -5.30166974 24.9606563 0 0 Z " fill="#000000" transform="translate(2006,1713)"/>
<path d="M0 0 C2.19607417 2.19607417 2.45063261 3.08651467 3.15545654 6.02523804 C3.4652007 7.29364108 3.4652007 7.29364108 3.78120232 8.58766842 C4.11138705 9.98745859 4.11138705 9.98745859 4.44824219 11.41552734 C4.68679995 12.4015648 4.9253577 13.38760225 5.17114449 14.40351963 C5.96990157 17.71271819 6.75835597 21.02428572 7.546875 24.3359375 C8.11031962 26.67947355 8.674389 29.02285946 9.23904419 31.36610413 C10.60684415 37.0494275 11.96801345 42.73431464 13.32623756 48.41993183 C14.91759277 55.07989496 16.51713935 61.73788269 18.11704612 68.3957957 C21.80175633 83.73096343 25.47258709 99.06943783 29.14091492 114.40853119 C30.42404356 119.77274549 31.70853473 125.1366332 32.99316406 130.50048828 C36.49533706 145.12482834 39.995137 159.74973203 43.48730469 174.37646484 C48.73104554 196.3387625 53.98720732 218.29803876 59.2578125 240.25390625 C59.41522887 240.90966235 59.57264524 241.56541845 59.73483181 242.24104595 C61.83221496 250.97805371 63.93003627 259.71495625 66.0279541 268.45183563 C68.89667132 280.39877652 71.76504561 292.34579971 74.6328125 304.29296875 C74.7881952 304.94029244 74.9435779 305.58761614 75.10366917 306.2545557 C84.76308246 346.49650273 94.38546076 386.74731128 104 427 C100.54571607 428.17151444 98.27709669 427.81333775 94.77246094 426.92016602 C93.73168396 426.65982071 92.69090698 426.3994754 91.61859131 426.13124084 C90.50179993 425.84172043 89.38500854 425.55220001 88.234375 425.25390625 C87.08584045 424.96394272 85.93730591 424.67397919 84.75396729 424.37522888 C81.08367807 423.44645545 77.41687578 422.50465004 73.75 421.5625 C71.26323931 420.93077996 68.77626253 420.29990993 66.2890625 419.66992188 C60.19016588 418.12313826 54.09408156 416.56564009 48 415 C40.35463764 383.83581199 32.74515558 352.66316802 25.18915558 321.47719193 C24.41724157 318.2913905 23.64512924 315.10563719 22.87298584 311.91989136 C14.37538674 276.85778504 5.91972491 241.78575915 -2.5045166 206.70596504 C-5.92942412 192.44491417 -9.36300473 178.18596022 -12.79899597 163.92757607 C-13.67660135 160.2856592 -14.55408138 156.64371216 -15.43151855 153.00175476 C-15.72190632 151.79646024 -16.01229408 150.59116571 -16.31148148 149.34934711 C-16.89868011 146.91209625 -17.48587645 144.47484485 -18.07307053 142.03759289 C-19.50592361 136.09055548 -20.93909409 130.14359492 -22.37298584 124.19680786 C-25.466789 111.36513146 -28.55552889 98.53226278 -31.63323975 85.69671631 C-32.52281749 81.98694707 -33.41446559 78.27768673 -34.3081665 74.56890869 C-35.29128458 70.48787542 -36.26897725 66.4055848 -37.24189186 62.32210732 C-37.58830435 60.87194089 -37.93661078 59.42222532 -38.28699303 57.97301292 C-38.75754183 56.02534532 -39.22042129 54.07582951 -39.68286133 52.1262207 C-39.93965164 51.05378616 -40.19644196 49.98135162 -40.46101379 48.87641907 C-40.98780114 46.06510191 -41.37734086 43.8374089 -41 41 C-39.44348145 38.84220886 -39.44348145 38.84220886 -37.23632812 36.66870117 C-36.41547729 35.848228 -35.59462646 35.02775482 -34.74890137 34.18241882 C-33.85207642 33.3114003 -32.95525146 32.44038177 -32.03125 31.54296875 C-31.12121216 30.64000565 -30.21117432 29.73704254 -29.27355957 28.80671692 C-26.85790574 26.41012348 -24.42761518 24.02892534 -21.99395752 21.65063477 C-19.51168719 19.21957767 -17.04356932 16.77424514 -14.57421875 14.33007812 C-9.72989525 9.53932505 -4.86995769 4.76468892 0 0 Z " fill="#000000" transform="translate(2039,849)"/>
<path d="M0 0 C1.49092918 -0.01052147 1.49092918 -0.01052147 3.01197815 -0.02125549 C6.2931869 -0.03896643 9.57421361 -0.04513031 12.85546875 -0.046875 C14.55440277 -0.04788712 14.55440277 -0.04788712 16.28765869 -0.04891968 C106.78577954 0.03593966 198.14147184 14.32830528 294.04296875 43.203125 C295.15847107 43.54219879 295.15847107 43.54219879 296.29650879 43.88812256 C346.32747348 59.09955728 394.37071608 79.14245331 441.1986084 102.29364014 C444.0096285 103.67980105 446.82756813 105.05174742 449.64453125 106.42578125 C463.41354539 113.17865339 476.77267852 120.52185319 490.04296875 128.203125 C492.02074185 129.33870102 493.9986073 130.47411619 495.9765625 131.609375 C522.76434571 147.04699443 548.78754454 163.6762001 573.921875 181.68359375 C575.37875664 182.7272898 576.83717546 183.76884243 578.296875 184.80859375 C593.40889451 195.57367025 607.87825946 206.99931839 622.24316406 218.73535156 C623.81607169 220.01808632 625.39395159 221.29471913 626.97265625 222.5703125 C633.00524505 227.45724646 638.89325475 232.49586388 644.74243164 237.59960938 C648.46950801 240.85123979 652.23124771 244.05101266 656.04296875 247.203125 C654.45823295 251.06641127 651.98339988 253.49189423 649.03515625 256.40625 C648.54967316 256.8889032 648.06419006 257.3715564 647.56399536 257.86883545 C646.01997009 259.40171062 644.46912051 260.92746504 642.91796875 262.453125 C641.86672866 263.49432861 640.81594218 264.53599041 639.765625 265.578125 C637.19663871 268.12511964 634.62148714 270.66577677 632.04296875 273.203125 C625.41019831 267.52085941 618.79211725 261.84705895 612.40429688 255.88867188 C606.99722826 250.84754256 601.49047041 246.04503213 595.72265625 241.4140625 C592.9104356 239.0937755 590.22499612 236.67241366 587.54296875 234.203125 C578.46178396 225.86693132 568.72995447 218.32671981 559.01757812 210.74804688 C556.92237674 209.10877457 554.83409955 207.46092563 552.74609375 205.8125 C543.4135282 198.46799079 533.9163116 191.4504961 524.16064453 184.6796875 C522.00744379 183.178355 519.86551748 181.66217456 517.7265625 180.140625 C480.36521527 153.564476 440.86396063 130.05310979 400.04296875 109.203125 C399.35283691 108.84976074 398.66270508 108.49639648 397.95166016 108.13232422 C394.13390131 106.18348118 390.29781655 104.27485241 386.44921875 102.38769531 C384.68102894 101.51723499 382.91582782 100.64069691 381.15234375 99.76074219 C349.02535552 83.74622214 315.88229958 70.15585774 282.04296875 58.203125 C281.34268555 57.95516174 280.64240234 57.70719849 279.92089844 57.45172119 C245.47391235 45.28359807 210.12963857 34.42349507 174.35986328 26.91455078 C171.23966796 26.24531413 168.1301301 25.54088592 165.02069092 24.82389832 C126.47580261 15.94471307 87.43646107 10.5930238 48.12799072 6.4251709 C46.30937452 6.23149607 44.49130606 6.03269168 42.67333984 5.83300781 C23.53829041 3.74530839 4.26254884 3.10644817 -14.95703125 2.203125 C-14.95703125 1.873125 -14.95703125 1.543125 -14.95703125 1.203125 C-10.00422285 -0.08224824 -5.08021151 0.02382667 0 0 Z " fill="#000001" transform="translate(1233.95703125,698.796875)"/>
<path d="M0 0 C1.3845615 1.1948253 2.74056665 2.42373172 4.0625 3.6875 C4.68640625 4.28304687 5.3103125 4.87859375 5.953125 5.4921875 C15.22689418 15.20948477 19.60925702 27.51699846 19.3125 40.796875 C18.1194595 54.59140577 12.41017871 66.48313124 2.0625 75.6875 C-2.97252677 79.48527726 -8.46962689 82.56606371 -13.9375 85.6875 C-14.84064941 86.20828125 -15.74379883 86.7290625 -16.67431641 87.265625 C-32.84248388 96.56198191 -49.32168081 105.22357992 -65.9375 113.6875 C-67.07807861 114.27023682 -67.07807861 114.27023682 -68.24169922 114.86474609 C-72.03552582 116.79908935 -75.84423855 118.70020743 -79.66845703 120.57373047 C-81.34579352 121.39705832 -83.02091953 122.22489297 -84.69482422 123.05517578 C-139.88275624 150.38861307 -198.10180611 171.30853917 -257.59429932 187.06640625 C-259.95087271 187.6910446 -262.30624093 188.32009796 -264.66162109 188.94921875 C-345.48432107 210.44547578 -444.96286066 230.88411858 -528.9375 219.6875 C-528.9375 219.3575 -528.9375 219.0275 -528.9375 218.6875 C-525.02192098 217.78973039 -521.27279273 217.4874363 -517.26171875 217.328125 C-515.88773497 217.26754042 -514.51379467 217.20596433 -513.13989258 217.14355469 C-512.4083194 217.11080444 -511.67674622 217.0780542 -510.92300415 217.04431152 C-422.30093779 212.92514667 -333.27850471 195.5549074 -238.83557129 163.34838867 C-237.05287873 162.72767367 -235.26820335 162.11266163 -233.48339844 161.49804688 C-177.77477189 142.27882494 -124.07820145 116.84186824 -72.9375 87.6875 C-71.97440918 87.1423877 -71.01131836 86.59727539 -70.01904297 86.03564453 C-54.18714706 77.03492363 -42.50637819 68.78033057 -36.0625 51 C-32.57290699 37.97634037 -34.80989177 25.27114812 -41 13.5625 C-44.62826401 7.53615592 -49.17596171 3.62899501 -54.9375 -0.3125 C-41.67186188 -14.81791738 -14.13818363 -10.50745961 0 0 Z " fill="#000000" transform="translate(1748.9375,2457.3125)"/>
<path d="M0 0 C0.98303604 -0.00511093 1.96607208 -0.01022186 2.97889709 -0.01548767 C6.21394006 -0.02933677 9.44876888 -0.0284305 12.68383789 -0.02612305 C14.94153421 -0.03001233 17.19922979 -0.03434748 19.45692444 -0.03910828 C24.1835467 -0.04656027 28.91009425 -0.04628643 33.63671875 -0.04101562 C39.68365897 -0.03522013 45.73029298 -0.05215914 51.77718258 -0.0753603 C56.43813352 -0.09011497 61.09901099 -0.090967 65.75998116 -0.08785057 C67.98903574 -0.08836283 70.21809454 -0.09358266 72.44712639 -0.10366249 C75.56781619 -0.11604399 78.68791294 -0.10922479 81.80859375 -0.09765625 C83.17961746 -0.10912186 83.17961746 -0.10912186 84.57833862 -0.12081909 C91.49443949 -0.06435269 96.6950546 1.34005757 102.71899414 4.8996582 C106.95558216 9.37161222 109.15980084 14.67461589 109.46899414 20.8371582 C109.16257909 26.51077881 107.17446019 30.9689437 103.25024414 35.0715332 C99.14523463 38.72429591 96.12364378 40.38660232 90.5307312 40.43528748 C89.62247086 40.4453331 88.71421051 40.45537872 87.77842712 40.46572876 C86.78412186 40.47155975 85.78981659 40.47739075 84.76538086 40.48339844 C83.71626022 40.49318222 82.66713959 40.502966 81.58622742 40.51304626 C78.10705841 40.54300996 74.62792793 40.5643903 71.14868164 40.58325195 C69.96011692 40.58982378 68.7715522 40.59639561 67.54697037 40.60316658 C61.25373779 40.63576687 54.96052219 40.66021433 48.66723633 40.6796875 C43.46223257 40.69749086 38.25777154 40.73229598 33.05297852 40.78222656 C26.76654721 40.84246357 20.48061868 40.87316869 14.19391251 40.88286018 C11.80095701 40.89141111 9.40801481 40.91022001 7.01522446 40.93960381 C3.65921526 40.9785918 0.30515723 40.97954236 -3.05102539 40.97167969 C-4.03318527 40.9916803 -5.01534515 41.01168091 -6.02726746 41.0322876 C-13.08511158 40.95834224 -17.75119967 39.00435605 -23.03100586 34.2746582 C-27.11515238 29.06469496 -27.71470056 23.70273698 -27.48413086 17.1809082 C-26.58991697 11.44560531 -23.6636778 7.90733014 -19.65600586 3.8996582 C-13.41387235 0.03548031 -7.13251364 -0.01928978 0 0 Z " fill="#000000" transform="translate(441.031005859375,1744.725341796875)"/>
<path d="M0 0 C5.52463145 4.07770416 8.83924033 8.25719912 10.625 14.9375 C10.91921775 18.30498673 10.91879103 21.6597852 10.91552734 25.03857422 C10.92224457 26.04097137 10.92896179 27.04336853 10.93588257 28.07614136 C10.95484134 31.38154084 10.95878561 34.68673707 10.9609375 37.9921875 C10.9673665 40.29615359 10.97409493 42.60011887 10.98110962 44.90408325 C10.9930768 49.73083387 10.99679097 54.55751294 10.99560547 59.38427734 C10.99540223 65.56023231 11.02271298 71.73572742 11.05714989 77.91157341 C11.07941787 82.66946509 11.08344304 87.42724603 11.08238602 92.18518448 C11.08474178 94.4616975 11.09356389 96.73821358 11.10905075 99.01467514 C11.12870954 102.20265421 11.12287267 105.38964068 11.11083984 108.57763672 C11.12207886 109.51192505 11.13331787 110.44621338 11.14489746 111.40881348 C11.0785015 118.35312926 9.46141313 123.6505604 4.87890625 128.9609375 C-0.30149512 133.10047301 -4.28430699 135.47690089 -11.1953125 135.2421875 C-17.45907915 134.36660722 -22.01795951 131.88546169 -25.875 126.875 C-28.45826388 123.1364431 -29.49629017 120.1091177 -29.52890015 115.56843567 C-29.53750061 114.67555847 -29.54610107 113.78268127 -29.55496216 112.86274719 C-29.55922211 111.88557236 -29.56348206 110.90839752 -29.56787109 109.90161133 C-29.57604858 108.87039154 -29.58422607 107.83917175 -29.59265137 106.77670288 C-29.61750104 103.35765158 -29.63402113 99.93864181 -29.6484375 96.51953125 C-29.65376118 95.3517835 -29.65908485 94.18403576 -29.66456985 92.98090172 C-29.69130064 86.79904207 -29.71067509 80.6172026 -29.72509766 74.43530273 C-29.74173764 68.05407007 -29.78651098 61.67335463 -29.8374691 55.29231739 C-29.87114694 50.38259802 -29.88267578 45.47300128 -29.88832474 40.56317711 C-29.89503652 38.21128071 -29.91025652 35.85939235 -29.93421555 33.50760841 C-29.96587742 30.21143244 -29.96590155 26.91664981 -29.95849609 23.62036133 C-29.97490143 22.65330765 -29.99130676 21.68625397 -30.00820923 20.68989563 C-29.941752 13.44396605 -27.95892388 8.54594507 -22.82600975 3.37791157 C-16.39565535 -2.24417276 -7.97547292 -2.51079703 0 0 Z " fill="#000000" transform="translate(1236.375,1015.0625)"/>
</svg>
